<?xml version="1.0" encoding="UTF-8"?>
<svg width="26px" height="26px" viewBox="0 0 26 26" version="1.1" xmlns="http://www.w3.org/2000/svg" xmlns:xlink="http://www.w3.org/1999/xlink">
    <!-- Generator: Sketch 61.2 (89653) - https://sketch.com -->
    <title>icon /2</title>
    <desc>Created with Sketch.</desc>
    <g id="Page-1" stroke="none" stroke-width="1" fill="none" fill-rule="evenodd">
        <g id="Advertisers-Copy" transform="translate(-637.000000, -1241.000000)">
            <rect fill="#FFFFFF" x="0" y="0" width="1440" height="5012"></rect>
            <g id="Group-34" transform="translate(635.000000, 948.000000)">
                <g id="Group-12-Copy">
                    <g id="Group-32">
                        <g id="Group-6-Copy-2" transform="translate(0.000000, 288.000000)">
                            <g id="icon-/2-copy-5" transform="translate(0.000000, 3.000000)">
                                <rect id="Rectangle" stroke="#000000" stroke-width="0.1" fill="#000000" fill-rule="nonzero" stroke-linejoin="round" x="2.5" y="2.5" width="25" height="25" rx="6"></rect>
                                <g id="open-source-iniciative" stroke-width="1" fill-rule="evenodd" transform="translate(6.875000, 6.875000)" fill="#FFFFFF">
                                    <path d="M8.125,0 C3.62916667,0 0,3.8608156 0,8.64361702 C0,11.697695 1.4625,14.4636525 3.9,16.0771277 C3.95416667,16.1347518 4.0625,16.1347518 4.11666667,16.1347518 C4.17083333,16.1347518 4.225,16.0771277 4.27916667,16.0195035 L6.825,11.5824468 C6.87916667,11.4671986 6.87916667,11.2943262 6.71666667,11.179078 C5.90416667,10.660461 5.41666667,9.73847518 5.41666667,8.70124113 C5.41666667,7.08776596 6.60833333,5.82003546 8.125,5.82003546 C9.64166667,5.82003546 10.8333333,7.08776596 10.8333333,8.70124113 C10.8333333,9.79609929 10.2375,10.7757092 9.37083333,11.2943262 C9.31666667,11.3519504 9.2625,11.4095745 9.20833333,11.4671986 C9.20833333,11.5248227 9.20833333,11.6400709 9.2625,11.697695 L11.8083333,16.1347518 C11.8625,16.25 11.9708333,16.25 12.025,16.25 C12.0791667,16.25 12.1333333,16.25 12.1333333,16.1923759 C14.6791667,14.6365248 16.25,11.7553191 16.25,8.70124113 C16.25,3.91843972 12.6208333,0 8.125,0 Z" id="Path" fill-rule="nonzero"></path>
                                </g>
                            </g>
                        </g>
                    </g>
                </g>
            </g>
        </g>
    </g>
</svg>