<?xml version="1.0" encoding="UTF-8"?>
<svg width="22px" height="22px" viewBox="0 0 22 22" version="1.1" xmlns="http://www.w3.org/2000/svg" xmlns:xlink="http://www.w3.org/1999/xlink">
    <!-- Generator: Sketch 61.2 (89653) - https://sketch.com -->
    <title>Path</title>
    <desc>Created with Sketch.</desc>
    <g id="Symbols" stroke="none" stroke-width="1" fill="none" fill-rule="evenodd">
        <g id="Icon-/-icon-understand-3-Copy-18" transform="translate(-1.000000, -1.000000)">
            <path d="M12,1 C5.928,1 1,5.928 1,12 C1,18.072 5.928,23 12,23 C18.072,23 23,18.072 23,12 C23,5.928 18.072,1 12,1 Z" id="Path" fill="#000000"></path>
            <g id="increasing-chart.1" transform="translate(7.000000, 7.000000)" fill="#FFFFFF" fill-rule="nonzero">
                <g id="bar-chart">
                    <g id="Group">
                        <g id="Group-2">
                            <path d="M0.204081633,10 L2.65306122,10 C2.76571429,10 2.85714286,9.87555556 2.85714286,9.72222222 L2.85714286,3.61111111 C2.85714286,3.45777778 2.76571429,3.33333333 2.65306122,3.33333333 L0.204081633,3.33333333 C0.0914285714,3.33333333 0,3.45777778 0,3.61111111 L0,9.72222222 C0,9.87555556 0.0914285714,10 0.204081633,10 Z" id="Path"></path>
                            <path d="M3.7755102,10 L6.2244898,10 C6.33714286,10 6.42857143,9.90175439 6.42857143,9.78070175 L6.42857143,1.88596491 C6.42857143,1.76491228 6.33714286,1.66666667 6.2244898,1.66666667 L3.7755102,1.66666667 C3.66285714,1.66666667 3.57142857,1.76491228 3.57142857,1.88596491 L3.57142857,9.78070175 C3.57142857,9.90175439 3.66285714,10 3.7755102,10 Z" id="Path"></path>
                            <path d="M9.79591837,0 L7.34693878,0 C7.23428571,0 7.14285714,0.082962963 7.14285714,0.185185185 L7.14285714,9.81481481 C7.14285714,9.91703704 7.23428571,10 7.34693878,10 L9.79591837,10 C9.90857143,10 10,9.91703704 10,9.81481481 L10,0.185185185 C10,0.082962963 9.90857143,0 9.79591837,0 Z" id="Path"></path>
                        </g>
                    </g>
                </g>
            </g>
        </g>
    </g>
</svg>