<?xml version="1.0" encoding="UTF-8"?>
<svg width="40px" height="40px" viewBox="0 0 40 40" version="1.1" xmlns="http://www.w3.org/2000/svg" xmlns:xlink="http://www.w3.org/1999/xlink">
    <!-- Generator: Sketch 61.2 (89653) - https://sketch.com -->
    <title>option 29</title>
    <desc>Created with Sketch.</desc>
    <g id="Page-1" stroke="none" stroke-width="1" fill="none" fill-rule="evenodd">
        <g id="Advertisers-Copy" transform="translate(-118.000000, -278.000000)">
            <g id="Group-15" transform="translate(118.000000, 174.000000)" fill="#104FFF" fill-rule="nonzero">
                <path d="M19,140 L28.72,120.54 L22,120.54 L22,108 L12,127.46 L19,127.46 L19,140 M20,104 C25.5,104 30.2,106 34.1,109.9 C38,113.8 40,118.5 40,124 C40,129.5 38,134.2 34.1,138.1 C30.2,142 25.5,144 20,144 C14.5,144 9.8,142 5.9,138.1 C2,134.2 0,129.5 0,124 C0,118.5 2,113.8 5.9,109.9 C9.8,106 14.5,104 20,104 Z" id="option-29"></path>
            </g>
            <g id="Nav-left" transform="translate(68.000000, 0.000000)"></g>
        </g>
    </g>
</svg>