<?xml version="1.0" encoding="UTF-8"?>
<svg width="22px" height="22px" viewBox="0 0 22 22" version="1.1" xmlns="http://www.w3.org/2000/svg" xmlns:xlink="http://www.w3.org/1999/xlink">
    <!-- Generator: Sketch 61.2 (89653) - https://sketch.com -->
    <title>Path</title>
    <desc>Created with Sketch.</desc>
    <g id="Symbols" stroke="none" stroke-width="1" fill="none" fill-rule="evenodd">
        <g id="Icon-/-icon-understand-3-Copy-13" transform="translate(-1.000000, -1.000000)">
            <path d="M12,1 C5.928,1 1,5.928 1,12 C1,18.072 5.928,23 12,23 C18.072,23 23,18.072 23,12 C23,5.928 18.072,1 12,1 Z" id="Path" fill="#000000"></path>
            <g id="robot" transform="translate(6.000000, 6.000000)" fill="#FFFFFF" fill-rule="nonzero">
                <path d="M6,0 C6.6,0 7.09090909,0.495 7.09090909,1.1 C7.09090909,1.507 6.87272727,1.8645 6.54545455,2.0515 L6.54545455,2.75 L7.09090909,2.75 C9.20181818,2.75 10.9090909,4.4715 10.9090909,6.6 L11.4545455,6.6 C11.7545455,6.6 12,6.8475 12,7.15 L12,8.8 C12,9.1025 11.7545455,9.35 11.4545455,9.35 L10.9090909,9.35 L10.9090909,9.9 C10.9090909,10.505 10.4181818,11 9.81818182,11 L2.18181818,11 C1.58181818,11 1.09090909,10.505 1.09090909,9.9 L1.09090909,9.35 L0.545454545,9.35 C0.245454545,9.35 0,9.1025 0,8.8 L0,7.15 C0,6.8475 0.245454545,6.6 0.545454545,6.6 L1.09090909,6.6 C1.09090909,4.4715 2.79818182,2.75 4.90909091,2.75 L5.45454545,2.75 L5.45454545,2.0515 C5.12727273,1.8645 4.90909091,1.507 4.90909091,1.1 C4.90909091,0.495 5.4,0 6,0 M3.54545455,6.05 C2.79272727,6.05 2.18181818,6.666 2.18181818,7.425 C2.18181818,8.184 2.79272727,8.8 3.54545455,8.8 C4.29818182,8.8 4.90909091,8.184 4.90909091,7.425 C4.90909091,6.666 4.29818182,6.05 3.54545455,6.05 M8.45454545,6.05 C7.70181818,6.05 7.09090909,6.666 7.09090909,7.425 C7.09090909,8.184 7.70181818,8.8 8.45454545,8.8 C9.20727273,8.8 9.81818182,8.184 9.81818182,7.425 C9.81818182,6.666 9.20727273,6.05 8.45454545,6.05 Z" id="Shape"></path>
            </g>
        </g>
    </g>
</svg>