<?xml version="1.0" encoding="UTF-8"?>
<svg width="44px" height="44px" viewBox="0 0 44 44" version="1.1" xmlns="http://www.w3.org/2000/svg" xmlns:xlink="http://www.w3.org/1999/xlink">
    <!-- Generator: Sketch 61.2 (89653) - https://sketch.com -->
    <title>Path</title>
    <desc>Created with Sketch.</desc>
    <g id="Symbols" stroke="none" stroke-width="1" fill="none" fill-rule="evenodd">
        <g id="icon-/-section3-copy-11" transform="translate(-2.000000, -2.000000)">
            <rect id="Rectangle" fill="#FFFFFF" fill-rule="nonzero" x="0" y="0" width="48" height="48"></rect>
            <path d="M24,2 C11.856,2 2,11.856 2,24 C2,36.144 11.856,46 24,46 C36.144,46 46,36.144 46,24 C46,11.856 36.144,2 24,2 Z" id="Path" fill="#000000"></path>
            <g id="checkbox-multiple-marked-circle" transform="translate(12.000000, 12.000000)" fill="#FFFFFF" fill-rule="nonzero">
                <path d="M12,0 C5.37,0 -9.09494702e-13,5.37 -9.09494702e-13,12 C-9.09494702e-13,18.63 5.37,24 12,24 C18.63,24 24,18.63 24,12 C24,5.37 18.63,0 12,0 M17.4850615,6 L19.4674868,8.13 L10.3286467,17.88 L5,12.195 L6.99648506,10.065 L10.3286467,13.635" id="Shape"></path>
            </g>
        </g>
    </g>
</svg>