<?xml version="1.0" encoding="UTF-8"?>
<svg width="26px" height="26px" viewBox="0 0 26 26" version="1.1" xmlns="http://www.w3.org/2000/svg" xmlns:xlink="http://www.w3.org/1999/xlink">
    <!-- Generator: Sketch 61.2 (89653) - https://sketch.com -->
    <title>icon /2</title>
    <desc>Created with Sketch.</desc>
    <g id="Page-1" stroke="none" stroke-width="1" fill="none" fill-rule="evenodd">
        <g id="Advertisers-Copy" transform="translate(-1037.000000, -1241.000000)">
            <rect fill="#FFFFFF" x="0" y="0" width="1440" height="5012"></rect>
            <g id="Group-34" transform="translate(635.000000, 948.000000)">
                <g id="Group-12-Copy">
                    <g id="Group-32">
                        <g id="Group-6-Copy-3" transform="translate(400.000000, 288.000000)">
                            <g id="icon-/2-copy-6" transform="translate(0.000000, 3.000000)">
                                <rect id="Rectangle" stroke="#000000" stroke-width="0.1" fill="#000000" fill-rule="nonzero" stroke-linejoin="round" x="2.5" y="2.5" width="25" height="25" rx="6"></rect>
                                <g id="account-multiple" stroke-width="1" fill-rule="evenodd" transform="translate(6.875000, 10.000000)" fill="#FFFFFF">
                                    <path d="M10.7142857,5.71428571 C10.5071429,5.71428571 10.2714286,5.71428571 10.0214286,5.75 C10.85,6.35 11.4285714,7.14285714 11.4285714,8.21428571 L11.4285714,10 L15.7142857,10 L15.7142857,8.21428571 C15.7142857,6.55 12.3785714,5.71428571 10.7142857,5.71428571 M5,5.71428571 C3.33571429,5.71428571 0,6.55 0,8.21428571 L0,10 L10,10 L10,8.21428571 C10,6.55 6.66428571,5.71428571 5,5.71428571 M5,4.28571429 C6.18571429,4.28571429 7.14285714,3.32857143 7.14285714,2.14285714 C7.14285714,0.957142857 6.18571429,-1.33226763e-14 5,-1.33226763e-14 C3.81428571,-1.33226763e-14 2.85714286,0.957142857 2.85714286,2.14285714 C2.85714286,3.32857143 3.81428571,4.28571429 5,4.28571429 M10.7142857,4.28571429 C11.9,4.28571429 12.8571429,3.32857143 12.8571429,2.14285714 C12.8571429,0.957142857 11.9,-1.33226763e-14 10.7142857,-1.33226763e-14 C9.52857143,-1.33226763e-14 8.57142857,0.957142857 8.57142857,2.14285714 C8.57142857,3.32857143 9.52857143,4.28571429 10.7142857,4.28571429 Z" id="Shape" fill-rule="nonzero"></path>
                                </g>
                            </g>
                        </g>
                    </g>
                </g>
            </g>
        </g>
    </g>
</svg>