<?xml version="1.0" encoding="UTF-8"?>
<svg width="44px" height="44px" viewBox="0 0 44 44" version="1.1" xmlns="http://www.w3.org/2000/svg" xmlns:xlink="http://www.w3.org/1999/xlink">
    <!-- Generator: Sketch 61.2 (89653) - https://sketch.com -->
    <title>icon / section3</title>
    <desc>Created with Sketch.</desc>
    <g id="Page-1" stroke="none" stroke-width="1" fill="none" fill-rule="evenodd">
        <g id="Funnels-Copy" transform="translate(-737.000000, -2206.000000)">
            <rect fill="#FFFFFF" x="0" y="0" width="1440" height="4573"></rect>
            <rect id="Rectangle" fill="#F8F9FA" x="0" y="1955" width="1440" height="1132"></rect>
            <g id="icon-/-section3-copy-15" transform="translate(735.000000, 2204.000000)">
                <path d="M24,2 C11.856,2 2,11.856 2,24 C2,36.144 11.856,46 24,46 C36.144,46 46,36.144 46,24 C46,11.856 36.144,2 24,2 Z" id="Path" fill="#000000"></path>
                <g id="Group" stroke-width="1" transform="translate(13.000000, 13.000000)" fill="#FFFFFF">
                    <path d="M17.2333333,0 C15.5466667,0 14.0066667,0.88 13.1266667,2.34666667 C12.3933333,1.76 11.5133333,1.46666667 10.6333333,1.46666667 C9.31333333,1.46666667 7.99333333,2.12666667 7.26,3.3 C7.18666667,3.37333333 7.18666667,3.59333333 7.26,3.66666667 C7.33333333,3.81333333 7.48,3.81333333 7.62666667,3.81333333 C8.06666667,3.74 8.43333333,3.66666667 8.8,3.66666667 C11.5133333,3.66666667 12.2466667,5.20666667 12.3933333,5.64666667 C12.3933333,5.72 12.4666667,5.72 12.4666667,5.79333333 C12.98,6.30666667 13.2,7.04 13.2,8.06666667 L13.2,9.16666667 C13.2,9.38666667 13.3466667,9.53333333 13.5666667,9.53333333 L17.2333333,9.53333333 C19.8733333,9.53333333 22,7.40666667 22,4.76666667 C22,2.12666667 19.8733333,0 17.2333333,0 Z M13.5666667,5.86666667 C13.3466667,5.86666667 13.2,5.72 13.2,5.5 C13.2,5.28 13.3466667,5.13333333 13.5666667,5.13333333 C13.7866667,5.13333333 13.9333333,5.28 13.9333333,5.5 C13.9333333,5.72 13.7866667,5.86666667 13.5666667,5.86666667 Z M16.5,5.86666667 C16.28,5.86666667 16.1333333,5.72 16.1333333,5.5 C16.1333333,5.28 16.28,5.13333333 16.5,5.13333333 C16.72,5.13333333 16.8666667,5.28 16.8666667,5.5 C16.8666667,5.72 16.72,5.86666667 16.5,5.86666667 Z M19.4333333,5.86666667 C19.2133333,5.86666667 19.0666667,5.72 19.0666667,5.5 C19.0666667,5.28 19.2133333,5.13333333 19.4333333,5.13333333 C19.6533333,5.13333333 19.8,5.28 19.8,5.5 C19.8,5.72 19.6533333,5.86666667 19.4333333,5.86666667 Z" id="Shape" fill-rule="nonzero"></path>
                    <path d="M17.16,19.8 C16.94,18.92 16.3533333,18.26 15.4733333,17.9666667 L12.2466667,16.8666667 C11.44,16.5733333 11.0733333,15.2533333 11,14.8133333 C11.5866667,14.3 12.1,13.4933333 12.1,12.8333333 C12.1,12.54 12.1733333,12.4666667 12.1733333,12.4666667 C12.32,12.4666667 12.3933333,12.32 12.3933333,12.2466667 C12.4666667,12.1733333 12.76,11.22 12.76,10.6333333 C12.76,10.6333333 12.76,10.56 12.76,10.56 C12.6866667,10.4133333 12.6133333,10.1933333 12.3933333,10.0466667 L12.3933333,8.06666667 C12.3933333,6.89333333 12.0266667,6.38 11.66,6.08666667 C11.66,5.57333333 11.0733333,4.4 8.8,4.4 C6.52666667,4.4 5.13333333,6.52666667 5.13333333,8.06666667 L5.13333333,10.0466667 C4.91333333,10.1933333 4.84,10.4133333 4.76666667,10.56 C4.76666667,10.56 4.76666667,10.6333333 4.76666667,10.6333333 C4.76666667,11.22 5.13333333,12.1 5.13333333,12.2466667 C5.20666667,12.32 5.20666667,12.3933333 5.35333333,12.4666667 C5.42666667,12.4666667 5.5,12.6133333 5.5,12.8333333 C5.5,13.4933333 6.01333333,14.3 6.6,14.8133333 C6.52666667,15.3266667 6.16,16.5733333 5.42666667,16.8666667 L2.2,17.9666667 C1.39333333,18.26 0.733333333,18.92 0.513333333,19.8 L2.13162821e-14,21.56 C2.13162821e-14,21.6333333 2.13162821e-14,21.78 0.0733333333,21.8533333 C0.146666667,21.9266667 0.22,22 0.366666667,22 L17.2333333,22 C17.38,22 17.4533333,21.9266667 17.5266667,21.8533333 C17.6,21.78 17.6,21.6333333 17.6,21.56 L17.16,19.8 Z" id="Path" fill-rule="nonzero"></path>
                </g>
            </g>
        </g>
    </g>
</svg>