<?xml version="1.0" encoding="UTF-8"?>
<svg width="44px" height="44px" viewBox="0 0 44 44" version="1.1" xmlns="http://www.w3.org/2000/svg" xmlns:xlink="http://www.w3.org/1999/xlink">
    <!-- Generator: Sketch 61.2 (89653) - https://sketch.com -->
    <title>Icon / icon-account Copy</title>
    <desc>Created with Sketch.</desc>
    <g id="Page-1" stroke="none" stroke-width="1" fill="none" fill-rule="evenodd">
        <g id="Advertisers-Copy" transform="translate(-137.000000, -1799.000000)">
            <rect fill="#FFFFFF" x="0" y="0" width="1440" height="5012"></rect>
            <g id="Group-33" transform="translate(135.000000, 1797.000000)">
                <g id="Icon-/-bulleted-Copy">
                    <polygon id="Shape" points="0 0 48 0 48 48 0 48"></polygon>
                    <path d="M24,2 C11.856,2 2,11.856 2,24 C2,36.144 11.856,46 24,46 C36.144,46 46,36.144 46,24 C46,11.856 36.144,2 24,2 Z" id="Path" fill="#000000" fill-rule="evenodd"></path>
                    <g id="google-circles" stroke-width="1" fill-rule="evenodd" transform="translate(12.000000, 12.000000)" fill="#FFFFFF">
                        <path d="M16.7542857,16 L17.1428571,16 C18.2857143,16 19.4285714,15.7714286 20.4228571,15.3828571 C19.6228571,20.2628571 15.3942857,24 10.2857143,24 C4.57142857,24 0,19.3942857 0,13.7142857 C0,8.60571429 3.73714286,4.37714286 8.61714286,3.57714286 C8.22857143,4.57142857 8,5.71428571 8,6.85714286 L8,7.24571429 C5.34857143,8.18285714 3.42857143,10.72 3.42857143,13.7142857 C3.42857143,17.4971429 6.50285714,20.5714286 10.2857143,20.5714286 C13.28,20.5714286 15.8171429,18.6514286 16.7542857,16 M17.1428571,10.2857143 C19.04,10.2857143 20.5714286,8.75428571 20.5714286,6.85714286 C20.5714286,4.96 19.04,3.42857143 17.1428571,3.42857143 C15.2457143,3.42857143 13.7142857,4.96 13.7142857,6.85714286 C13.7142857,8.75428571 15.2457143,10.2857143 17.1428571,10.2857143 M17.1428571,0 C20.9257143,0 24,3.07428571 24,6.85714286 C24,10.64 20.9257143,13.7142857 17.1428571,13.7142857 C13.36,13.7142857 10.2857143,10.64 10.2857143,6.85714286 C10.2857143,3.06285714 13.36,0 17.1428571,0 Z" id="Shape" fill-rule="nonzero"></path>
                    </g>
                </g>
            </g>
        </g>
    </g>
</svg>