<?xml version="1.0" encoding="UTF-8"?>
<svg width="44px" height="44px" viewBox="0 0 44 44" version="1.1" xmlns="http://www.w3.org/2000/svg" xmlns:xlink="http://www.w3.org/1999/xlink">
    <!-- Generator: Sketch 61.2 (89653) - https://sketch.com -->
    <title>icon / section3</title>
    <desc>Created with Sketch.</desc>
    <g id="Page-1" stroke="none" stroke-width="1" fill="none" fill-rule="evenodd">
        <g id="Funnels-Copy" transform="translate(-237.000000, -2206.000000)">
            <rect fill="#FFFFFF" x="0" y="0" width="1440" height="4573"></rect>
            <rect id="Rectangle" fill="#F8F9FA" x="0" y="1955" width="1440" height="1132"></rect>
            <g id="Group-24" transform="translate(235.000000, 2204.000000)">
                <g id="Group-12">
                    <g id="icon-/-section3-copy-13">
                        <path d="M24,2 C11.856,2 2,11.856 2,24 C2,36.144 11.856,46 24,46 C36.144,46 46,36.144 46,24 C46,11.856 36.144,2 24,2 Z" id="Path" fill="#000000"></path>
                        <g id="arrow-expand-all" stroke-width="1" transform="translate(13.000000, 13.000000)" fill="#FFFFFF">
                            <path d="M7.94444444,12.3322222 L9.66777778,14.0555556 L4.16777778,19.5555556 L8.55555556,19.5555556 L8.55555556,22 L0,22 L0,13.4444444 L2.44444444,13.4444444 L2.44444444,17.8322222 L7.94444444,12.3322222 M9.66777778,7.94444444 L7.94444444,9.66777778 L2.44444444,4.16777778 L2.44444444,8.55555556 L0,8.55555556 L0,0 L8.55555556,0 L8.55555556,2.44444444 L4.16777778,2.44444444 L9.66777778,7.94444444 M14.0555556,12.3322222 L19.5555556,17.8322222 L19.5555556,13.4444444 L22,13.4444444 L22,22 L13.4444444,22 L13.4444444,19.5555556 L17.8322222,19.5555556 L12.3322222,14.0555556 L14.0555556,12.3322222 M12.3322222,7.94444444 L17.8322222,2.44444444 L13.4444444,2.44444444 L13.4444444,0 L22,0 L22,8.55555556 L19.5555556,8.55555556 L19.5555556,4.16777778 L14.0555556,9.66777778 L12.3322222,7.94444444 Z" id="Shape" fill-rule="nonzero"></path>
                        </g>
                    </g>
                </g>
            </g>
        </g>
    </g>
</svg>