<?xml version="1.0" encoding="UTF-8"?>
<svg width="22px" height="22px" viewBox="0 0 22 22" version="1.1" xmlns="http://www.w3.org/2000/svg" xmlns:xlink="http://www.w3.org/1999/xlink">
    <!-- Generator: Sketch 61.2 (89653) - https://sketch.com -->
    <title>Shape</title>
    <desc>Created with Sketch.</desc>
    <defs>
        <path d="M11,0 C4.928,0 0,4.928 0,11 C0,17.072 4.928,22 11,22 C17.072,22 22,17.072 22,11 C22,4.928 17.072,0 11,0 Z" id="path-1"></path>
    </defs>
    <g id="Symbols" stroke="none" stroke-width="1" fill="none" fill-rule="evenodd">
        <g id="Icon-/-bulleted-Copy-6" transform="translate(-1.000000, -1.000000)">
            <polygon id="Shape" points="0 0 24 0 24 24 0 24"></polygon>
            <g id="Shape" transform="translate(1.000000, 1.000000)">
                <mask id="mask-2" fill="white">
                    <use xlink:href="#path-1"></use>
                </mask>
                <use id="Mask" fill="#000000" xlink:href="#path-1"></use>
            </g>
            <g id="waves" transform="translate(1.000000, 6.000000)"></g>
            <g id="phone-14" transform="translate(12.000000, 12.000000) rotate(90.000000) translate(-12.000000, -12.000000) translate(6.000000, 6.000000)" fill="#FFFFFF" fill-rule="nonzero">
                <path d="M5.38331418,7.79821809 C5.38331418,7.46783136 5.64963306,7.2 5.98331418,7.2 C6.31468503,7.2 6.58331418,7.46835414 6.58331418,7.79821809 L6.58331418,11.4017819 C6.58331418,11.7321686 6.31699527,12 5.98331418,12 C5.65194333,12 5.38331418,11.7316459 5.38331418,11.4017819 L5.38331418,7.79821809 Z M5.98331418,3.6 C5.63056911,3.6 5.28406638,3.64335606 4.94902413,3.72817884 C4.62778827,3.80950629 4.30144623,3.61502205 4.22011881,3.29378616 C4.13879136,2.9725503 4.3332756,2.64620826 4.65451149,2.56488084 C5.08563399,2.45573337 5.53105635,2.4 5.98331418,2.4 C8.96638704,2.4 11.3833142,4.81763481 11.3833142,7.80279765 L11.3833142,9.6 C11.3833142,9.93137085 11.114685,10.2 10.7833142,10.2 C10.4519433,10.2 10.1833142,9.93137085 10.1833142,9.6 L10.1833142,7.80279765 C10.1833142,5.48029788 8.30356668,3.6 5.98331418,3.6 Z M5.98331418,1.2 C4.07167203,1.2 2.29361628,2.01573363 1.04839685,3.41621535 C0.828211794,3.66385455 0.448965288,3.68611053 0.201326076,3.46592547 C-0.0463131364,3.24574041 -0.0685691224,2.86649391 0.151615941,2.61885471 C1.62224013,0.964863228 3.72535392,0 5.98331418,0 C8.25310503,0 10.3666355,0.975817953 11.8380553,2.6457387 C12.0571266,2.89436373 12.0331686,3.27350652 11.7845436,3.49257783 C11.5359186,3.71164917 11.1567758,3.68769117 10.9377045,3.43906617 C9.69174219,2.02501809 7.90483011,1.2 5.98331418,1.2 Z M7.78331418,11.4 L7.78331418,10.1928955 C7.78331418,9.86152467 8.05194333,9.59289552 8.38331418,9.59289552 C8.71468503,9.59289552 8.98331418,9.86152467 8.98331418,10.1928955 L8.98331418,11.4 C8.98331418,11.7313708 8.71468503,12 8.38331418,12 C8.05194333,12 7.78331418,11.7313708 7.78331418,11.4 Z M1.78331416,7.80222633 L1.78331416,9.6 C1.78331416,9.93137085 1.51468501,10.2 1.18331416,10.2 C0.851943315,10.2 0.583314165,9.93137085 0.583314165,9.6 L0.583314165,7.80222633 C0.583314165,6.42503013 1.10118346,5.12732385 2.01673107,4.13627688 C2.24159079,3.89287443 2.62119228,3.8778426 2.86459473,4.10270229 C3.10799715,4.32756201 3.12302901,4.7071635 2.89816932,4.95056595 C2.1854991,5.72200548 1.78331416,6.72982332 1.78331416,7.80222633 Z M4.18331418,7.79824893 L4.18331418,11.4 C4.18331418,11.7313708 3.91468503,12 3.58331418,12 C3.25194333,12 2.98331418,11.7313708 2.98331418,11.4 L2.98331418,7.79824893 C2.98331418,6.14308944 4.3284276,4.8 5.98331418,4.8 C7.64035041,4.8 8.98331418,6.14309172 8.98331418,7.80056712 C8.98331418,8.13193797 8.71468503,8.40056712 8.38331418,8.40056712 C8.05194333,8.40056712 7.78331418,8.13193797 7.78331418,7.80056712 C7.78331418,6.80580783 6.97758312,6 5.98331418,6 C4.99076511,6 4.18331418,6.80623599 4.18331418,7.79824893 Z" id="Combined-Shape" transform="translate(5.993944, 6.000000) rotate(180.000000) translate(-5.993944, -6.000000) "></path>
            </g>
        </g>
    </g>
</svg>