<?xml version="1.0" encoding="UTF-8"?>
<svg width="44px" height="44px" viewBox="0 0 44 44" version="1.1" xmlns="http://www.w3.org/2000/svg" xmlns:xlink="http://www.w3.org/1999/xlink">
    <!-- Generator: Sketch 61.2 (89653) - https://sketch.com -->
    <title>Path</title>
    <desc>Created with Sketch.</desc>
    <g id="Symbols" stroke="none" stroke-width="1" fill="none" fill-rule="evenodd">
        <g id="icon-/-section3-copy-12" transform="translate(-2.000000, -2.000000)">
            <rect id="Rectangle" fill="#FFFFFF" fill-rule="nonzero" x="0" y="0" width="48" height="48"></rect>
            <path d="M24,2 C11.856,2 2,11.856 2,24 C2,36.144 11.856,46 24,46 C36.144,46 46,36.144 46,24 C46,11.856 36.144,2 24,2 Z" id="Path" fill="#000000"></path>
            <g id="fire" transform="translate(13.000000, 9.000000)" fill="#FFFFFF" fill-rule="nonzero">
                <path d="M10.5136364,24.9954545 C8.08636364,24.9954545 6.13636364,23.0727273 6.13636364,20.7136364 C6.13636364,18.5045455 7.54090909,16.95 9.95454545,16.4590909 C12.3681818,15.9681818 14.8636364,14.8090909 16.2545455,12.9409091 C16.7863636,14.7 17.0454545,16.5545455 17.0454545,18.45 C17.0454545,22.05 14.1272727,24.9954545 10.5136364,24.9954545 M12.9545455,0 C12.9545455,0 13.9636364,3.61363636 13.9636364,6.54545455 C13.9636364,9.35454545 12.1227273,11.6318182 9.31363636,11.6318182 C6.49090909,11.6318182 4.36363636,9.35454545 4.36363636,6.54545455 L4.40454545,6.04090909 C1.65,9.31363636 0,13.5545455 0,18.1772727 C0,24.2045455 4.88181818,29.0863636 10.9090909,29.0863636 C16.9363636,29.0863636 21.8181818,24.2045455 21.8181818,18.1772727 C21.8181818,10.8136364 18.2863636,4.26818182 12.9545455,0 Z" id="Shape"></path>
            </g>
        </g>
    </g>
</svg>