<?xml version="1.0" encoding="UTF-8"?>
<svg width="477px" height="486px" viewBox="0 0 477 486" version="1.1" xmlns="http://www.w3.org/2000/svg" xmlns:xlink="http://www.w3.org/1999/xlink">
    <!-- Generator: Sketch 61.2 (89653) - https://sketch.com -->
    <title>funnels</title>
    <desc>Created with Sketch.</desc>
    <defs>
        <rect id="path-1" x="4" y="0" width="118" height="26" rx="6.84968408"></rect>
        <filter x="-12.7%" y="-46.2%" width="125.4%" height="215.4%" filterUnits="objectBoundingBox" id="filter-2">
            <feOffset dx="0" dy="3" in="SourceAlpha" result="shadowOffsetOuter1"></feOffset>
            <feGaussianBlur stdDeviation="4.5" in="shadowOffsetOuter1" result="shadowBlurOuter1"></feGaussianBlur>
            <feColorMatrix values="0 0 0 0 0   0 0 0 0 0   0 0 0 0 0  0 0 0 0.24 0" type="matrix" in="shadowBlurOuter1"></feColorMatrix>
        </filter>
        <rect id="path-3" x="4" y="0" width="118" height="26" rx="6.84968408"></rect>
        <filter x="-12.7%" y="-46.2%" width="125.4%" height="215.4%" filterUnits="objectBoundingBox" id="filter-4">
            <feOffset dx="0" dy="3" in="SourceAlpha" result="shadowOffsetOuter1"></feOffset>
            <feGaussianBlur stdDeviation="4.5" in="shadowOffsetOuter1" result="shadowBlurOuter1"></feGaussianBlur>
            <feColorMatrix values="0 0 0 0 0   0 0 0 0 0   0 0 0 0 0  0 0 0 0.24 0" type="matrix" in="shadowBlurOuter1"></feColorMatrix>
        </filter>
        <rect id="path-5" x="4" y="0" width="118" height="26" rx="6.84968408"></rect>
        <filter x="-12.7%" y="-46.2%" width="125.4%" height="215.4%" filterUnits="objectBoundingBox" id="filter-6">
            <feOffset dx="0" dy="3" in="SourceAlpha" result="shadowOffsetOuter1"></feOffset>
            <feGaussianBlur stdDeviation="4.5" in="shadowOffsetOuter1" result="shadowBlurOuter1"></feGaussianBlur>
            <feColorMatrix values="0 0 0 0 0   0 0 0 0 0   0 0 0 0 0  0 0 0 0.24 0" type="matrix" in="shadowBlurOuter1"></feColorMatrix>
        </filter>
        <rect id="path-7" x="4" y="0" width="118" height="26" rx="6.84968408"></rect>
        <filter x="-12.7%" y="-46.2%" width="125.4%" height="215.4%" filterUnits="objectBoundingBox" id="filter-8">
            <feOffset dx="0" dy="3" in="SourceAlpha" result="shadowOffsetOuter1"></feOffset>
            <feGaussianBlur stdDeviation="4.5" in="shadowOffsetOuter1" result="shadowBlurOuter1"></feGaussianBlur>
            <feColorMatrix values="0 0 0 0 0   0 0 0 0 0   0 0 0 0 0  0 0 0 0.24 0" type="matrix" in="shadowBlurOuter1"></feColorMatrix>
        </filter>
        <rect id="path-9" x="4" y="0" width="118" height="26" rx="6.84968408"></rect>
        <filter x="-12.7%" y="-46.2%" width="125.4%" height="215.4%" filterUnits="objectBoundingBox" id="filter-10">
            <feOffset dx="0" dy="3" in="SourceAlpha" result="shadowOffsetOuter1"></feOffset>
            <feGaussianBlur stdDeviation="4.5" in="shadowOffsetOuter1" result="shadowBlurOuter1"></feGaussianBlur>
            <feColorMatrix values="0 0 0 0 0   0 0 0 0 0   0 0 0 0 0  0 0 0 0.24 0" type="matrix" in="shadowBlurOuter1"></feColorMatrix>
        </filter>
        <rect id="path-11" x="4" y="0" width="118" height="26" rx="6.84968408"></rect>
        <filter x="-12.7%" y="-46.2%" width="125.4%" height="215.4%" filterUnits="objectBoundingBox" id="filter-12">
            <feOffset dx="0" dy="3" in="SourceAlpha" result="shadowOffsetOuter1"></feOffset>
            <feGaussianBlur stdDeviation="4.5" in="shadowOffsetOuter1" result="shadowBlurOuter1"></feGaussianBlur>
            <feColorMatrix values="0 0 0 0 0   0 0 0 0 0   0 0 0 0 0  0 0 0 0.24 0" type="matrix" in="shadowBlurOuter1"></feColorMatrix>
        </filter>
    </defs>
    <g id="Page-1" stroke="none" stroke-width="1" fill="none" fill-rule="evenodd">
        <g id="Home-Copy-7" transform="translate(-773.000000, -1498.000000)">
            <rect fill="#FFFFFF" x="0" y="0" width="1440" height="3700"></rect>
            <g id="funnels" transform="translate(773.000000, 1505.000000)">
                <g id="Group-14-Copy" transform="translate(0.000000, -7.000000)">
                    <g id="Group-10">
                        <g id="Group-6" transform="translate(238.500000, 234.000000) rotate(90.000000) translate(-238.500000, -234.000000) translate(4.500000, -4.500000)">
                            <g id="Chart" transform="translate(234.000000, 238.500000) scale(-1, 1) translate(-234.000000, -238.500000) translate(0.000000, 0.000000)">
                                <g id="Group-36" transform="translate(-0.000000, 0.000000)">
                                    <path d="M163.235332,438.125851 C187.688037,438.125851 206.66494,444.754201 233.934562,444.754201 C260.211224,444.754201 281.769564,448.313677 298.430167,447.977618 C325.423309,447.433143 305,442.465509 305,438.567028 C305,434.668548 334.985909,436.201977 298.430167,436.201977 C289.548933,436.201977 262.744535,439.834641 234.5,436.201977 C204.281109,432.315382 195.687262,421.625851 162.529335,421.625851 C159.745171,421.625851 159.010821,424.758768 159.000039,428.657218 C158.993644,430.969483 156.357744,430.565886 154.689728,432.690982 C153.545489,434.148773 149.363203,438.125851 163.235332,438.125851 Z" id="Path-19-Copy" fill-opacity="0.3" fill="#282C47" fill-rule="nonzero" transform="translate(234.888777, 434.812926) scale(1, -1) translate(-234.888777, -434.812926) "></path>
                                    <path d="M311.264668,427.590057 C349.058809,424.372478 375.887181,389.55014 392.220612,320.586838 L392.538078,319.227876 L392.856588,317.827493 C394.185995,311.905979 395.544613,304.900317 396.958039,296.741886 L397.654575,292.655382 C399.717933,280.360026 401.87515,265.849635 404.470187,247.106655 L412.502616,187.61404 L413.80277,178.098972 L414.958988,169.754825 C418.319571,145.681009 421.884485,119.454375 425.653731,91.074922 C431.938598,60.5516713 437.610363,36.5270701 447,36.5270701 C447.490945,36.5270701 448.142358,33.9938921 447.872773,33.5118731 C447.722107,33.2424829 447.215628,29.1709986 447,29.2257363 C436.434167,32.0831608 428.493547,52.699556 423.178142,91.074922 C418.169449,115.400272 416.92475,140.253948 410.70963,185.955182 L402.94305,243.541011 L401.753181,252.117462 L400.842334,258.566945 C398.955687,271.809863 397.290052,282.742974 395.682354,292.323199 L395.326771,294.425586 C393.569604,304.732826 391.90099,313.258301 390.274451,320.125905 C374.117421,388.344403 347.676905,417.87454 310.964798,421 C310.414504,421.046849 309.956755,427.534533 310.003604,428.084827 C310.050453,428.635122 310.714373,427.636906 311.264668,427.590057 Z" id="Path-18" fill-opacity="0.304031906" fill="#3399EE" fill-rule="nonzero"></path>
                                    <path d="M311.970665,427.590057 C303.953754,428.733725 300.813094,429.677609 302.548687,430.421706 C304.466433,431.243899 299.325027,433.919601 311.970665,434.151451 C324.912788,434.388736 350.580909,435.229854 378.968088,440.500406 C401.080632,444.605967 424.514669,453.377569 447,453.805058 L447,442 C387.599028,437.764224 346.792326,424.780115 311.970665,427.590057 Z" id="Path-23-Copy-2" fill-opacity="0.299715909" fill="#3399EE" fill-rule="nonzero"></path>
                                    <path d="M311.66007,434.179984 L311.970665,441.682944 C384.026616,443.900437 369.759037,475.797472 447,476.052017 L447.205997,465.052017 C355.683996,463.839648 396.883569,438.911903 311.66007,434.179984 Z" id="Path-25" fill-opacity="0.277835446" fill="#282C47" fill-rule="nonzero"></path>
                                    <path d="M149.864668,42 L162.664668,42 C162.996038,42 163.264668,42.2686292 163.264668,42.6 L163.264668,122 L163.264668,122 L149.264668,122 L149.264668,42.6 C149.264668,42.2686292 149.533297,42 149.864668,42 Z" id="Rectangle" fill="#3399EE"></path>
                                    <path d="M149.864668,373 L162.664668,373 C162.996038,373 163.264668,373.268629 163.264668,373.6 L163.264668,384 L163.264668,384 L149.264668,384 L149.264668,373.6 C149.264668,373.268629 149.533297,373 149.864668,373 Z" id="Rectangle" fill="#3399EE"></path>
                                    <path d="M149.264668,384 L163.264668,384 L163.264668,389.4 C163.264668,389.731371 162.996038,390 162.664668,390 L149.864668,390 C149.533297,390 149.264668,389.731371 149.264668,389.4 L149.264668,384 L149.264668,384 Z" id="Rectangle-Copy" fill="#282C47"></path>
                                    <rect id="Rectangle" fill="#3399EE" x="149" y="317" width="14" height="14" rx="0.6"></rect>
                                    <rect id="Rectangle" fill="#282C47" x="149.264668" y="431" width="14" height="17" rx="0.6"></rect>
                                    <path d="M149.264668,122 L163.264668,122 L163.264668,148.4 C163.264668,148.731371 162.996038,149 162.664668,149 L149.864668,149 C149.533297,149 149.264668,148.731371 149.264668,148.4 L149.264668,122 L149.264668,122 Z" id="Rectangle-Copy" fill="#282C47"></path>
                                    <path d="M149.6,239 L162.4,239 C162.731371,239 163,239.268629 163,239.6 L163,259 L163,259 L149,259 L149,239.6 C149,239.268629 149.268629,239 149.6,239 Z" id="Rectangle" fill="#3399EE"></path>
                                    <path d="M149,258 L163,258 L163,266.4 C163,266.731371 162.731371,267 162.4,267 L149.6,267 C149.268629,267 149,266.731371 149,266.4 L149,258 L149,258 Z" id="Rectangle-Copy" fill="#282C47"></path>
                                    <path d="M298.6,52.7027601 L311.4,52.7027601 C311.731371,52.7027601 312,52.9713892 312,53.3027601 L312,87.7027601 L312,87.7027601 L298,87.7027601 L298,53.3027601 C298,52.9713892 298.268629,52.7027601 298.6,52.7027601 Z" id="Rectangle" fill="#3399EE"></path>
                                    <path d="M298.6,350 L311.4,350 C311.731371,350 312,350.268629 312,350.6 L312,366.94586 L312,366.94586 L298,366.94586 L298,350.6 C298,350.268629 298.268629,350 298.6,350 Z" id="Rectangle" fill="#3399EE"></path>
                                    <path d="M311.564537,307.828733 C366.041596,309.672206 374.856319,349.807608 448,350.034324 L447.935877,337.034324 C361.749981,334.807513 363.794675,305.972418 311.739203,303.661586 C293.904888,302.869891 298.773979,306.373782 300.978229,307.468797 C302.106246,308.029167 305.635015,308.149146 311.564537,307.828733 Z" id="Path" fill-opacity="0.295044799" fill="#3399EE" fill-rule="nonzero"></path>
                                    <path d="M298.6,421 L311.4,421 C311.731371,421 312,421.268629 312,421.6 L312,434.180113 L312,434.180113 L298,434.180113 L298,421.6 C298,421.268629 298.268629,421 298.6,421 Z" id="Rectangle" fill="#3399EE"></path>
                                    <path d="M297.970665,434.151451 L311.970665,434.151451 L311.970665,441.082944 C311.970665,441.414315 311.702036,441.682944 311.370665,441.682944 L298.570665,441.682944 C298.239294,441.682944 297.970665,441.414315 297.970665,441.082944 L297.970665,434.151451 L297.970665,434.151451 Z" id="Rectangle-Copy-8" fill="#282C47"></path>
                                    <path d="M298,233.558033 L312,233.558033 L312,255.552512 C312,255.883883 311.731371,256.152512 311.4,256.152512 L298.6,256.152512 C298.268629,256.152512 298,255.883883 298,255.552512 L298,233.558033 L298,233.558033 Z" id="Rectangle-Copy" fill="#282C47"></path>
                                    <path d="M298,306.467445 L312,306.467445 L312,315.281812 C312,315.613183 311.731371,315.881812 311.4,315.881812 L298.6,315.881812 C298.268629,315.881812 298,315.613183 298,315.281812 L298,306.467445 L298,306.467445 Z" id="Rectangle-Copy" fill="#282C47"></path>
                                    <path d="M298.6,192 L311.4,192 C311.731371,192 312,192.268629 312,192.6 L312,235.306086 L312,235.306086 L298,235.306086 L298,192.6 C298,192.268629 298.268629,192 298.6,192 Z" id="Rectangle" fill="#3399EE"></path>
                                    <path d="M298.6,289 L311.4,289 C311.731371,289 312,289.268629 312,289.6 L312,307.828733 L312,307.828733 L298,307.828733 L298,289.6 C298,289.268629 298.268629,289 298.6,289 Z" id="Rectangle" fill="#3399EE"></path>
                                    <path d="M297.970665,366.151451 L311.970665,366.151451 L311.970665,373.082944 C311.970665,373.414315 311.702036,373.682944 311.370665,373.682944 L298.570665,373.682944 C298.239294,373.682944 297.970665,373.414315 297.970665,373.082944 L297.970665,366.151451 L297.970665,366.151451 Z" id="Rectangle-Copy" fill="#282C47"></path>
                                    <path d="M447.6,127.152512 L460.4,127.152512 C460.731371,127.152512 461,127.421142 461,127.752512 L461,157.152512 L461,157.152512 L447,157.152512 L447,127.752512 C447,127.421142 447.268629,127.152512 447.6,127.152512 Z" id="Rectangle" fill="#3399EE"></path>
                                    <path d="M447,157.152512 L461,157.152512 L461,171.552512 C461,171.883883 460.731371,172.152512 460.4,172.152512 L447.6,172.152512 C447.268629,172.152512 447,171.883883 447,171.552512 L447,157.152512 L447,157.152512 Z" id="Rectangle-Copy" fill="#282C47"></path>
                                    <path d="M447.6,222.179052 L460.4,222.179052 C460.731371,222.179052 461,222.447681 461,222.779052 L461,235.359165 L461,235.359165 L447,235.359165 L447,222.779052 C447,222.447681 447.268629,222.179052 447.6,222.179052 Z" id="Rectangle" fill="#3399EE"></path>
                                    <path d="M447,235.179052 L461,235.179052 L461,242.110545 C461,242.441916 460.731371,242.710545 460.4,242.710545 L447.6,242.710545 C447.268629,242.710545 447,242.441916 447,242.110545 L447,235.179052 L447,235.179052 Z" id="Rectangle-Copy" fill="#282C47"></path>
                                    <rect id="Rectangle" fill="#3399EE" x="447" y="281" width="13.7940026" height="13.1801132" rx="0.6"></rect>
                                    <path d="M447.6,337.034324 L460.4,337.034324 C460.731371,337.034324 461,337.302953 461,337.634324 L461,350.214437 L461,350.214437 L447,350.214437 L447,337.634324 C447,337.302953 447.268629,337.034324 447.6,337.034324 Z" id="Rectangle" fill="#3399EE"></path>
                                    <path d="M447,350.034324 L461,350.034324 L461,356.965817 C461,357.297188 460.731371,357.565817 460.4,357.565817 L447.6,357.565817 C447.268629,357.565817 447,357.297188 447,356.965817 L447,350.034324 L447,350.034324 Z" id="Rectangle-Copy" fill="#282C47"></path>
                                    <path d="M447,36.5270701 L461,36.5270701 L461,52.8729299 C461,53.2043008 460.731371,53.4729299 460.4,53.4729299 L447.6,53.4729299 C447.268629,53.4729299 447,53.2043008 447,52.8729299 L447,36.5270701 L447,36.5270701 Z" id="Rectangle-Copy" fill="#282C47"></path>
                                    <path d="M447.6,401.052017 L460.4,401.052017 C460.731371,401.052017 461,401.320646 461,401.652017 L461,454.052017 L461,454.052017 L447,454.052017 L447,401.652017 C447,401.320646 447.268629,401.052017 447.6,401.052017 Z" id="Rectangle" fill="#3399EE"></path>
                                    <path d="M447,454.052017 L461,454.052017 L461,475.452017 C461,475.783388 460.731371,476.052017 460.4,476.052017 L447.6,476.052017 C447.268629,476.052017 447,475.783388 447,475.452017 L447,454.052017 L447,454.052017 Z" id="Rectangle-Copy" fill="#282C47"></path>
                                    <path d="M0.6,170.949575 L13.4,170.949575 C13.7313708,170.949575 14,171.218205 14,171.549575 L14,280.949575 L14,280.949575 L-1.44950718e-11,280.949575 L-1.44950718e-11,171.549575 C-1.44951124e-11,171.218205 0.26862915,170.949575 0.6,170.949575 Z" id="Rectangle" fill="#3399EE"></path>
                                    <path d="M-1.63140612e-11,279 L14,279 L14,316.4 C14,316.731371 13.7313708,317 13.4,317 L0.6,317 C0.26862915,317 -1.63134655e-11,316.731371 -1.63140612e-11,316.4 L-1.63140612e-11,279 L-1.63140612e-11,279 Z" id="Rectangle-Copy" fill="#282C47"></path>
                                    <path d="M161.431017,253.331579 C161.813998,253.425038 160.572729,253.599633 156.5,254.778571 C153.479833,255.652822 142.61825,257.265502 162.735332,258.828733 C209.980526,262.5 256.843456,365.232152 298.430167,366.151451 C340.016878,367.07075 298.742725,364.145337 299.161564,362.042899 C299.481103,360.438921 305.02082,350.893258 298,350.893258 C250.879299,350.893258 222.288522,250.431017 162.568983,248.668421 C161.20413,248.628138 159.982662,249.143322 159.668421,250.431017 C159.354181,251.718713 160.143322,253.017338 161.431017,253.331579 Z" id="Path-2" fill-opacity="0.296929633" fill="#3399EE" fill-rule="nonzero"></path>
                                    <path d="M162.735332,248.666241 C236.166243,249 205.355826,220.750148 298.430167,223.50937 L298,210.5 C230.409918,202.423874 230.409918,234.415459 162.430167,239 C157.460254,239.33517 157.561976,242.55725 162.735332,248.666241 Z" id="Path-3" fill-opacity="0.296929633" fill="#3399EE" fill-rule="nonzero"></path>
                                    <path d="M162.735332,331 C239.148998,331 206.569466,247 298.430167,235.306086 L298,223.50937 C216.861225,225.38858 241.916865,317.055983 163,317.923874 L162.735332,331 Z" id="Path-4" fill-opacity="0.296929633" fill="#3399EE" fill-rule="nonzero"></path>
                                    <path d="M163,373 C161.033556,376.134495 159.288119,378.301162 157.763689,379.5 C154.742924,381.875582 141.161,384 163,384 C220.555885,384 234.5,307.828733 297.970665,307.828733 C311.08317,307.828733 307.220413,306.408792 306.911489,305.260286 C306.48045,303.657782 305.948284,301.910156 305.973758,299.324351 C305.995021,297.165948 303.871426,296.364195 305.973758,294.50937 C308.285182,292.470069 314.174614,289.459292 297.970665,289 C236.717708,287.263818 229.878907,369.836387 163,373 Z" id="Path-4-Copy" fill-opacity="0.296929633" fill="#3399EE" fill-rule="nonzero"></path>
                                    <path d="M311.564537,201.126302 C303.998097,205.466649 301.061244,208.591214 302.75398,210.5 C304.841789,212.854284 291.200661,215.482894 312,217.22126 C381.14189,223 349.988313,232.558033 447.092381,235.179052 C465.121839,235.6657 457.411215,233.711779 457.567354,232.679052 C457.673991,231.973731 454.000139,230.670417 446.545797,228.769108 C380.05802,225.556033 383.53601,198.942394 311.564537,201.126302 Z" id="Path-6" fill-opacity="0.299306163" fill="#3399EE" fill-rule="nonzero"></path>
                                    <path d="" id="Path-8" stroke="#979797" stroke-width="0.6"></path>
                                    <path d="M311.739203,298.414367 C309.008341,301.126615 306.752162,302.936818 304.970665,303.844974 C303.289482,304.701993 303.505655,305.041988 301.89991,305.827635 C300.316532,306.602338 297.053116,303.844974 312,303.844974 C393.297908,303.844974 387.563089,294.50937 447.092381,294.180113 C457.867142,294.120518 454.422312,291.97526 456.052956,291.39003 C459.38398,290.194541 457.34321,290.119286 455.006258,289.884547 C452.166685,289.59932 473.180643,292.913039 447.092381,291.39003 C389.023136,288 377.686098,299.754376 311.739203,298.414367 Z" id="Path-9" fill-opacity="0.295044799" fill="#3399EE" fill-rule="nonzero"></path>
                                    <path d="M312,228.317198 C365.430126,231.444823 395.04394,294.180113 447.092381,291.39003 L447,285.433853 C383.364786,281 363.055077,221.251418 312,217.330875 C294.508422,215.987688 301.823439,219.393621 303.985328,221.251418 C305.091667,222.202139 307.763224,224.557399 312,228.317198 Z" id="Path-9-Copy" fill-opacity="0.295044799" fill="#3399EE" fill-rule="nonzero"></path>
                                    <path d="M164,136 C238.649149,142.50937 235.869251,104.998525 298,101 C324.701532,99.2815797 302.173066,95.4265364 302.75398,94.6058085 C303.937952,92.9330646 299.444517,95.3463861 299.469526,94.6058085 C299.506805,93.5018683 299.108837,87 298,87 C237.586635,87 260.269155,122 163,122 C136.376547,122 158.994781,137.192617 156.5,138 C150.494665,139.943498 160.529335,128.727937 160.529335,129.508316 C160.529335,130.397393 142.574423,132.623478 156.5,136 C159.875236,136.81839 154.189807,135.144556 164,136 Z" id="Path-13" fill-opacity="0.297066215" fill="#282C47" fill-rule="nonzero"></path>
                                    <path d="M162.529335,202.423874 C172.726074,205.485913 181.349668,207.016932 188.400118,207.016932 C272.188734,207.016932 269.77375,434.33225 297.470665,433.421142" id="Path-16-Copy-2" stroke-linecap="round"></path>
                                    <path d="M311.739203,85.7392028 C329.768148,87.7003483 378.755297,114.72572 383.684115,172.152512 C388.612933,229.579305 425.439035,287.058127 446.739203,283.615991" id="Path-19-Copy" stroke-opacity="0.299306163" stroke="#3399EE" stroke-width="4" stroke-linecap="round"></path>
                                    <path d="M311.162814,355.000037 C350.264787,356.444323 376.220041,321.671241 392.658255,263.414502 L392.943284,262.391425 C395.27279,253.924442 397.648219,242.708968 400.265166,228.155395 L401.118575,223.341116 L401.80744,219.362052 C402.92077,212.867321 404.09508,205.714691 405.438027,197.293471 C406.255108,200.065639 408.447392,186.685319 412.01488,157.152512 C417.366112,112.853302 416.246144,88.3626145 421.177666,66.9957094 C428.325379,36.0266718 440.438973,30.0006587 447,29.2243341 C447.551622,29.1590642 448,32.5522847 448,32 C448,31.4477153 447.552236,22.0432826 447,22.058237 C407.941184,23.3163801 415.294003,118.186633 409.13465,157.152512 L404.241972,192.071571 L402.68134,201.854408 C401.34223,210.161039 400.16463,217.209689 399.02517,223.700273 L398.45746,226.905104 L397.970178,229.606988 C395.386236,243.809796 393.036677,254.708649 390.733414,262.871372 C374.499659,320.403515 349.339686,350 312,350 C311.448878,350 309.963178,353.520397 310.001776,354.071277 C310.041909,354.622157 310.611757,354.979683 311.162814,355.000037 Z" id="Path-18-Copy-2" fill-opacity="0.304031906" fill="#3399EE" fill-rule="nonzero"></path>
                                    <path d="M311.264668,68.4264622 C397.38194,68.4264622 370.599881,19 447,22.0610315 C461,22.0610315 454,14.9674235 454,9.44457602 C454,3.92172852 447.192204,0.993139791 447,0.999471421 C365.141134,3.92172852 408.061297,47.9105038 311.608236,53.1505648 C299.255007,53.8216857 304.506074,56.4579461 305,58.3874387 C305.856464,61.7331637 310.0003,64.9236818 310.0003,68.4264622 C310.0003,72.0744957 305.152481,79.8372958 305,78.6074396 C304.921636,77.9753863 288.94435,68.4264622 311.264668,68.4264622 Z" id="Path-18-Copy" fill-opacity="0.304031906" fill="#3399EE" fill-rule="nonzero"></path>
                                    <path d="M311.264668,196.50937 C315.389452,196.50937 322.415649,196.50937 332.343259,196.50937 C391.710209,196.50937 392.316526,142.50937 446.245927,142.50937" id="Path-18-Copy-4" stroke-opacity="0.304031906" stroke="#3399EE" stroke-width="10" stroke-linecap="round"></path>
                                    <path d="M11.8779863,271.651546 C11.8779863,274.574111 110.405435,271.651546 146.594932,267.499416 C149.375365,267.499416 153.5,252.990946 153.5,251.563016 C153.5,250.135087 149.438452,239.136479 146.827073,239.50926 C91.3677239,247.426213 13.2203805,247.307672 11.7245866,247.426213 C8.97667821,247.643983 7.13669074,295.016613 7.56072795,296.427839 C7.84341942,297.368656 9.28250553,289.109892 11.8779863,271.651546 Z" id="Path-18-Copy-5" fill-opacity="0.304031906" fill="#3399EE" fill-rule="nonzero"></path>
                                    <path d="M310.964798,294.00732 C307.719743,294.00732 314.650324,293.699029 331.756539,293.082447 C389.603915,290.997379 392.316526,152.50937 446.245927,152.50937" id="Path-18-Copy-6" stroke-opacity="0.304031906" stroke="#3399EE" stroke-width="10" stroke-linecap="round"></path>
                                    <path d="M313.376837,421 C391.752959,423.580114 382.895945,238.746191 449.151242,235.255561 C463.771593,234.485294 454.532894,231.723038 456.218419,231.336352 C460.171786,230.429389 452.60667,232.445375 452.60667,230.50937 C452.60667,227.747947 451.33034,228.327243 448.570244,228.455222 C379.955374,231.63672 396.138453,403.755783 313.11604,401.720692 C302.884232,401.469884 307.301675,409.181244 306.11604,411.268733 C303.742971,415.446879 305.239767,415.798806 306.11604,415.609196 C308.354372,415.12486 308.42236,399.980751 308.42236,401.720692 C308.42236,403.128424 314.661915,410.187981 306.219039,415.609196 C302.207756,418.184862 310.647242,419.303262 308.42236,421 C306.144116,422.737433 293.938605,420.3601 313.376837,421 Z" id="Path-18-Copy-7" fill-opacity="0.304031906" fill="#3399EE" fill-rule="nonzero" transform="translate(380.058020, 324.982716) scale(-1, 1) translate(-380.058020, -324.982716) "></path>
                                    <path d="M311.264668,132.50937 C314.998181,132.096557 321.829753,131.89015 331.759384,131.89015 C357.708884,131.89015 372.564554,119.958727 385.916004,106.792472 C402.350079,90.5863514 416.50515,72.5093703 446.264668,72.5093703" id="Path-18-Copy-5" stroke-opacity="0.304031906" stroke="#3399EE" stroke-width="10" stroke-linecap="round" transform="translate(378.764668, 102.509370) scale(1, -1) translate(-378.764668, -102.509370) "></path>
                                    <path d="M149.998845,122 C161.190971,122 156.465434,114.59448 156.5,109.028941 C156.548505,101.218961 158.037638,93.5610468 156.5,84.6462367 C152.525005,61.6002858 152.490756,42.0787597 149.998845,42.0787597 C25.6998931,46.4133248 122.565174,170.949575 14,170.949575 C-13.4625463,170.949575 13.6094177,192.126692 8.01907167,196.50937 C-8.49038634,209.452334 7.29331128,217.280692 7.51489766,221.647625 C7.5295772,221.936923 6.68093104,245.684458 14,245 C116.483369,235.416053 82.5,122 149.998845,122 Z" id="Path-18-Copy-3" fill-opacity="0.304031906" fill="#3399EE" fill-rule="nonzero"></path>
                                    <path d="M299.388846,103.164716 C302.192332,102.973374 306.5,100.353593 306.5,97.6802232 C306.5,95.0068539 302.731755,84.6647161 299.914693,84.6647161 C252.426439,84.6647161 246.764668,173.164716 163.264668,173.164716 C156.5,173.164716 152.782358,175.824447 156,177.167394 C159.493054,178.625289 160.735331,178.805581 162.430167,179.62426 C167.3144,181.983553 158.591412,181.3886 158.638167,181.676135 C158.741517,182.311715 152.640579,188.515256 159.599443,196.202741 C162.30682,199.193592 144.141396,210.5 163.264668,210.5 C251.069554,210.5 248.852019,106.61393 299.388846,103.164716 Z" id="Path-18-Copy-5" fill-opacity="0.304031906" fill="#3399EE" fill-rule="nonzero" transform="translate(230.447103, 147.582358) scale(1, -1) translate(-230.447103, -147.582358) "></path>
                                    <path d="M162.430167,84.6462367 C221.634906,84.6462367 214.859638,78.4350501 238.651267,78.7381278 C268.405651,79.1171642 287.637685,86.5 297.470665,86.5 C301.613309,86.5 305.645263,66.0029752 305.645263,61.9361751 C305.645263,61.0635645 306.520869,52.7027601 297.470665,52.7027601 C227.74913,52.7027601 209.280199,42 163,42.0778492 C158.785244,42.0854052 155.368228,97.6795351 155.664838,101.735898 C155.848996,104.254402 157.457551,80.379168 156.5,74.7812219 C155.915297,71.3629835 138.502743,84.6462367 162.430167,84.6462367 Z" id="Path-18-Copy-3" fill-opacity="0.304031906" fill="#3399EE" fill-rule="nonzero"></path>
                                    <path d="M311.545797,80.6170148 C345.950784,83.2652214 361.54947,92.0794029 386.880121,128.478081 C412.210773,164.876759 400.244783,225.501666 446.545797,225.556033" id="Path-19-Copy-2" stroke-opacity="0.299306163" stroke="#3399EE" stroke-width="6" stroke-linecap="round"></path>
                                    <path d="M162.430167,144.836387 C212.201738,151.034016 233.789823,188.208263 233.789823,253.859784 C233.789823,319.511304 276.913674,369.836387 298.430167,369.836387" id="Path-19-Copy" stroke-opacity="0.3" stroke="#282C47" stroke-width="6" stroke-linecap="round"></path>
                                    <path d="M162.529335,138.467445 C196.934322,141.573378 226.268743,147.701278 252.193563,199.125573 C278.118384,250.549868 251.169652,311.403681 297.470665,311.467445" id="Path-19-Copy-2" stroke-opacity="0.3" stroke="#282C47" stroke-width="6" stroke-linecap="round"></path>
                                    <path d="M311.876927,355.025033 C302.223864,355.025033 307.067796,357.361362 305.334258,358.549664 C303.567486,359.760747 295.45565,363.275235 307.386346,364.618691 C311.672957,365.101384 289.675276,364.419501 311.906455,366.342561 C396.845979,373.690069 380.329123,440.732752 448,442 L447,421.648233 C386.019493,420.643216 384.930682,355.025033 311.876927,355.025033 Z" id="Path-23" fill-opacity="0.299715909" fill="#3399EE" fill-rule="nonzero"></path>
                                    <path d="M447,465.052017 C454.21335,464.931004 452.525692,463.414952 454.92226,463.133412 C462.573031,462.23463 456.373599,461.926852 454,460.268014 C452.43048,459.171124 450.136927,465.979385 454,464.464426 C455.650257,463.817254 459.062993,465.970997 454.92226,463.133412 C453.103065,461.886745 458.492648,453.92836 447,454.052017 C348.113563,455.116 354.237491,366.94586 311.162814,366.150504 C310.267212,366.134934 304.293724,373.474205 311.970665,373.682944 C343.884218,374.550687 364.754083,466.431795 447,465.052017 Z" id="Path-23-Copy" fill-opacity="0.277835446" fill="#282C47" fill-rule="nonzero"></path>
                                </g>
                                <g id="colum" transform="translate(6.500000, 0.500000)">
                                    <g id="Group-18" transform="translate(-0.000000, 0.000000)">
                                        <g id="Group-Copy" transform="translate(149.000000, 41.000000)">
                                            <g id="Group-7" transform="translate(0.000000, 0.000000)">
                                                <g id="Group-13">
                                                    <g id="Group-15"></g>
                                                </g>
                                                <g id="Group-11" transform="translate(-0.000000, 329.000000)"></g>
                                            </g>
                                        </g>
                                        <g id="Group-Copy-2" transform="translate(297.000000, 51.000000)">
                                            <g id="Group-2" transform="translate(0.000000, 0.000000)">
                                                <g id="Group-5">
                                                    <g id="Group-4" transform="translate(0.000000, -0.000000)">
                                                        <g id="Group-3" transform="translate(0.000000, -0.000000)">
                                                            <g id="Group-12" transform="translate(0.000000, -0.000000)">
                                                                <g id="Group-16" transform="translate(0.970665, 369.000000)"></g>
                                                            </g>
                                                            <g id="Group-Copy-4" transform="translate(1.000000, 180.558033)"></g>
                                                            <g id="Group-Copy-7" transform="translate(1.000000, 254.467445)"></g>
                                                        </g>
                                                    </g>
                                                </g>
                                            </g>
                                        </g>
                                        <g id="Group-8" transform="translate(447.000000, 0.000000)">
                                            <g id="Group-Copy-5" transform="translate(0.000000, 126.152512)"></g>
                                            <g id="Group-Copy-8" transform="translate(0.000000, 221.179052)"></g>
                                            <g id="Group-Copy-10" transform="translate(0.000000, 280.000000)"></g>
                                            <g id="Group-Copy-9" transform="translate(0.000000, 336.034324)"></g>
                                            <g id="Group-Copy-3" fill="#3399EE">
                                                <path d="M0.6,0 L13.4,0 C13.7313708,8.22077476e-16 14,0.26862915 14,0.6 L14,36 L14,36 L0,36 L0,0.6 C7.04410774e-17,0.26862915 0.26862915,1.50416177e-15 0.6,0 Z" id="Rectangle"></path>
                                            </g>
                                            <g id="Group-Copy-11" transform="translate(0.000000, 400.052017)"></g>
                                        </g>
                                        <g id="Group" transform="translate(-0.000000, 169.000000)">
                                            <g id="Group-9" transform="translate(-0.000000, 0.000000)">
                                                <g id="Group-17" transform="translate(0.000000, 0.949575)"></g>
                                            </g>
                                        </g>
                                    </g>
                                    <g id="Group-Copy-17" transform="translate(149.235332, 380.917197)"></g>
                                    <g id="Group-Copy-16" transform="translate(149.235332, 292.016631)"></g>
                                    <g id="Group-Copy-18" transform="translate(149.235332, 412.520524)"></g>
                                </g>
                                <g id="Group-Copy-6" transform="translate(148.735332, 256.116065)"></g>
                            </g>
                        </g>
                    </g>
                </g>
                <g id="Group-2" transform="translate(280.000000, 143.000000)">
                    <g id="Combined-Shape">
                        <use fill="black" fill-opacity="1" filter="url(#filter-2)" xlink:href="#path-1"></use>
                        <use fill="#F2BB42" fill-rule="evenodd" xlink:href="#path-1"></use>
                    </g>
                    <g id="Combined-Shape">
                        <use fill="black" fill-opacity="1" filter="url(#filter-4)" xlink:href="#path-3"></use>
                        <use fill="#F2BB42" fill-rule="evenodd" xlink:href="#path-3"></use>
                    </g>
                    <polygon id="Triangle" fill="#F2BB42" transform="translate(2.000000, 13.000000) rotate(-90.000000) translate(-2.000000, -13.000000) " points="2 11 4 15 -3.55271368e-15 15"></polygon>
                    <text id="New-Opportunity" font-family="OpenSans-Bold, Open Sans" font-size="12" font-weight="bold" letter-spacing="-0.0230769256" fill="#FFFFFF">
                        <tspan x="11" y="17">New Opportunity</tspan>
                    </text>
                </g>
                <g id="Group-2" transform="translate(228.000000, 292.000000)">
                    <g id="Combined-Shape">
                        <use fill="black" fill-opacity="1" filter="url(#filter-6)" xlink:href="#path-5"></use>
                        <use fill="#F2BB42" fill-rule="evenodd" xlink:href="#path-5"></use>
                    </g>
                    <g id="Combined-Shape">
                        <use fill="black" fill-opacity="1" filter="url(#filter-8)" xlink:href="#path-7"></use>
                        <use fill="#F2BB42" fill-rule="evenodd" xlink:href="#path-7"></use>
                    </g>
                    <polygon id="Triangle" fill="#F2BB42" transform="translate(2.000000, 13.000000) rotate(-90.000000) translate(-2.000000, -13.000000) " points="2 11 4 15 -3.55271368e-15 15"></polygon>
                    <text id="New-Opportunity" font-family="OpenSans-Bold, Open Sans" font-size="12" font-weight="bold" letter-spacing="-0.0230769256" fill="#FFFFFF">
                        <tspan x="11" y="17">New Opportunity</tspan>
                    </text>
                </g>
                <g id="Group-2" transform="translate(171.000000, 441.000000)">
                    <g id="Combined-Shape">
                        <use fill="black" fill-opacity="1" filter="url(#filter-10)" xlink:href="#path-9"></use>
                        <use fill="#F2BB42" fill-rule="evenodd" xlink:href="#path-9"></use>
                    </g>
                    <g id="Combined-Shape">
                        <use fill="black" fill-opacity="1" filter="url(#filter-12)" xlink:href="#path-11"></use>
                        <use fill="#F2BB42" fill-rule="evenodd" xlink:href="#path-11"></use>
                    </g>
                    <polygon id="Triangle" fill="#F2BB42" transform="translate(2.000000, 13.000000) rotate(-90.000000) translate(-2.000000, -13.000000) " points="2 11 4 15 -3.55271368e-15 15"></polygon>
                    <text id="New-Opportunity" font-family="OpenSans-Bold, Open Sans" font-size="12" font-weight="bold" letter-spacing="-0.0230769256" fill="#FFFFFF">
                        <tspan x="11" y="17">New Opportunity</tspan>
                    </text>
                </g>
            </g>
        </g>
    </g>
</svg>