<?xml version="1.0" encoding="UTF-8"?>
<svg width="920px" height="306px" viewBox="0 0 920 306" version="1.1" xmlns="http://www.w3.org/2000/svg" xmlns:xlink="http://www.w3.org/1999/xlink">
    <!-- Generator: Sketch 61.2 (89653) - https://sketch.com -->
    <title>Group 6</title>
    <desc>Created with Sketch.</desc>
    <defs>
        <rect id="path-1" x="4" y="0" width="118" height="26" rx="6.84968408"></rect>
        <filter x="-12.7%" y="-46.2%" width="125.4%" height="215.4%" filterUnits="objectBoundingBox" id="filter-2">
            <feOffset dx="0" dy="3" in="SourceAlpha" result="shadowOffsetOuter1"></feOffset>
            <feGaussianBlur stdDeviation="4.5" in="shadowOffsetOuter1" result="shadowBlurOuter1"></feGaussianBlur>
            <feColorMatrix values="0 0 0 0 0   0 0 0 0 0   0 0 0 0 0  0 0 0 0.24 0" type="matrix" in="shadowBlurOuter1"></feColorMatrix>
        </filter>
        <rect id="path-3" x="4" y="0" width="118" height="26" rx="6.84968408"></rect>
        <filter x="-12.7%" y="-46.2%" width="125.4%" height="215.4%" filterUnits="objectBoundingBox" id="filter-4">
            <feOffset dx="0" dy="3" in="SourceAlpha" result="shadowOffsetOuter1"></feOffset>
            <feGaussianBlur stdDeviation="4.5" in="shadowOffsetOuter1" result="shadowBlurOuter1"></feGaussianBlur>
            <feColorMatrix values="0 0 0 0 0   0 0 0 0 0   0 0 0 0 0  0 0 0 0.24 0" type="matrix" in="shadowBlurOuter1"></feColorMatrix>
        </filter>
        <rect id="path-5" x="4" y="0" width="118" height="26" rx="6.84968408"></rect>
        <filter x="-12.7%" y="-46.2%" width="125.4%" height="215.4%" filterUnits="objectBoundingBox" id="filter-6">
            <feOffset dx="0" dy="3" in="SourceAlpha" result="shadowOffsetOuter1"></feOffset>
            <feGaussianBlur stdDeviation="4.5" in="shadowOffsetOuter1" result="shadowBlurOuter1"></feGaussianBlur>
            <feColorMatrix values="0 0 0 0 0   0 0 0 0 0   0 0 0 0 0  0 0 0 0.24 0" type="matrix" in="shadowBlurOuter1"></feColorMatrix>
        </filter>
        <rect id="path-7" x="4" y="0" width="118" height="26" rx="6.84968408"></rect>
        <filter x="-12.7%" y="-46.2%" width="125.4%" height="215.4%" filterUnits="objectBoundingBox" id="filter-8">
            <feOffset dx="0" dy="3" in="SourceAlpha" result="shadowOffsetOuter1"></feOffset>
            <feGaussianBlur stdDeviation="4.5" in="shadowOffsetOuter1" result="shadowBlurOuter1"></feGaussianBlur>
            <feColorMatrix values="0 0 0 0 0   0 0 0 0 0   0 0 0 0 0  0 0 0 0.24 0" type="matrix" in="shadowBlurOuter1"></feColorMatrix>
        </filter>
    </defs>
    <g id="Page-1" stroke="none" stroke-width="1" fill="none" fill-rule="evenodd">
        <g id="Funnels-Copy" transform="translate(-260.000000, -470.000000)">
            <g id="Group-9" transform="translate(-86.000000, 0.000000)">
                <g id="Group-3" transform="translate(86.000000, 0.000000)">
                    <rect id="Rectangle" fill="#000000" x="0" y="0" width="1440" height="904"></rect>
                    <g id="Group-6" transform="translate(259.000000, 471.000000)">
                        <g id="Chart" transform="translate(460.500000, 152.000000) scale(-1, 1) translate(-460.500000, -152.000000) ">
                            <g id="colum" transform="translate(297.000000, 0.000000)">
                                <g id="Group-Copy" transform="translate(0.470665, 0.000000)" fill="#3399EE">
                                    <path d="M1.2,1.70530257e-13 L26.3880052,1.70530257e-13 C27.0507469,1.70186468e-13 27.5880052,0.5372583 27.5880052,1.2 L27.5880052,83.9463602 L27.5880052,83.9463602 L1.08002496e-12,83.9463602 L1.08002496e-12,1.2 C1.0799438e-12,0.5372583 0.5372583,1.73316536e-13 1.2,1.70530257e-13 Z" id="Rectangle"></path>
                                </g>
                                <g id="Group-Copy-2" transform="translate(297.941330, 0.000000)">
                                    <path d="M1.2,-1.19015908e-13 L26.3880052,-1.19015908e-13 C27.0507469,-1.20903551e-13 27.5880052,0.5372583 27.5880052,1.2 L27.5880052,31.1800766 L27.5880052,31.1800766 L1.70530257e-13,31.1800766 L1.70530257e-13,1.2 C1.70671139e-13,0.5372583 0.5372583,-1.19338254e-13 1.2,-1.19015908e-13 Z" id="Rectangle" fill="#3399EE"></path>
                                    <path d="M1.70530257e-13,31.1800766 L27.5880052,31.1800766 L27.5880052,37.1754789 C27.5880052,37.8382206 27.0507469,38.3754789 26.3880052,38.3754789 L1.2,38.3754789 C0.5372583,38.3754789 1.72310275e-13,37.8382206 1.70530257e-13,37.1754789 L1.70530257e-13,31.1800766 L1.70530257e-13,31.1800766 Z" id="Rectangle-Copy" fill="#FFFFFF"></path>
                                </g>
                                <g id="Group-Copy-4" transform="translate(297.941330, 65.957854)">
                                    <path d="M1.2,-3.37507799e-14 L26.3880052,-3.37507799e-14 C27.0507469,-3.54163776e-14 27.5880052,0.5372583 27.5880052,1.2 L27.5880052,27.5823755 L27.5880052,27.5823755 L1.70530257e-13,27.5823755 L1.70530257e-13,1.2 C1.70671139e-13,0.5372583 0.5372583,-3.42951701e-14 1.2,-3.37507799e-14 Z" id="Rectangle" fill="#3399EE"></path>
                                    <path d="M1.70530257e-13,27.5823755 L27.5880052,27.5823755 L27.5880052,40.7731801 C27.5880052,41.4359218 27.0507469,41.9731801 26.3880052,41.9731801 L1.2,41.9731801 C0.5372583,41.9731801 1.71499597e-13,41.4359218 1.70530257e-13,40.7731801 L1.70530257e-13,27.5823755 L1.70530257e-13,27.5823755 Z" id="Rectangle-Copy" fill="#FFFFFF"></path>
                                </g>
                                <g id="Group-Copy-5" transform="translate(595.411995, 80.348659)">
                                    <path d="M1.2,2.27373675e-13 L26.3880052,2.27373675e-13 C27.0507469,2.25486033e-13 27.5880052,0.5372583 27.5880052,1.2 L27.5880052,22.7854406 L27.5880052,22.7854406 L1.70530257e-13,22.7854406 L1.70530257e-13,1.2 C1.70449094e-13,0.5372583 0.5372583,2.26829285e-13 1.2,2.27373675e-13 Z" id="Rectangle" fill="#3399EE"></path>
                                    <path d="M1.70530257e-13,22.7854406 L27.5880052,22.7854406 L27.5880052,33.5777778 C27.5880052,34.2405195 27.0507469,34.7777778 26.3880052,34.7777778 L1.2,34.7777778 C0.5372583,34.7777778 1.71943687e-13,34.2405195 1.70530257e-13,33.5777778 L1.70530257e-13,22.7854406 L1.70530257e-13,22.7854406 Z" id="Rectangle-Copy" fill="#FFFFFF"></path>
                                </g>
                                <g id="Group-Copy-17" transform="translate(0.470665, 215.862069)">
                                    <path d="M1.2,-1.70530257e-13 L26.3880052,-1.70530257e-13 C27.0507469,-1.72417899e-13 27.5880052,0.5372583 27.5880052,1.2 L27.5880052,7.1954023 L27.5880052,7.1954023 L1.08002496e-12,7.1954023 L1.08002496e-12,1.2 C1.0799438e-12,0.5372583 0.5372583,-1.70408513e-13 1.2,-1.70530257e-13 Z" id="Rectangle" fill="#3399EE"></path>
                                    <path d="M1.08002496e-12,7.1954023 L27.5880052,7.1954023 L27.5880052,9.59310345 C27.5880052,10.2558451 27.0507469,10.7931034 26.3880052,10.7931034 L1.2,10.7931034 C0.5372583,10.7931034 1.08143839e-12,10.2558451 1.08002496e-12,9.59310345 L1.08002496e-12,7.1954023 L1.08002496e-12,7.1954023 Z" id="Rectangle-Copy" fill="#FFFFFF"></path>
                                </g>
                                <g id="Group-Copy-16" transform="translate(0.470665, 173.888889)" fill="#3399EE">
                                    <rect id="Rectangle" x="1.08002496e-12" y="1.14575016e-13" width="27.5880052" height="14.3908046" rx="1.2"></rect>
                                </g>
                                <g id="Group-Copy-18" transform="translate(0.470665, 250.639847)" fill="#FFFFFF">
                                    <rect id="Rectangle" x="1.08002496e-12" y="2.14939178e-13" width="27.5880052" height="10.7931034" rx="1.2"></rect>
                                </g>
                                <g id="Group-Copy-7" transform="translate(297.941330, 128.318008)">
                                    <path d="M1.2,-4.26325641e-13 L26.3880052,-4.26325641e-13 C27.0507469,-4.30567815e-13 27.5880052,0.5372583 27.5880052,1.2 L27.5880052,11.9923372 L27.5880052,11.9923372 L1.70530257e-13,11.9923372 L1.70530257e-13,1.2 C1.70671139e-13,0.5372583 0.5372583,-4.25093675e-13 1.2,-4.26325641e-13 Z" id="Rectangle" fill="#3399EE"></path>
                                    <path d="M1.70530257e-13,11.9923372 L27.5880052,11.9923372 L27.5880052,16.7885057 C27.5880052,17.4512474 27.0507469,17.9885057 26.3880052,17.9885057 L1.2,17.9885057 C0.5372583,17.9885057 1.71943687e-13,17.4512474 1.70530257e-13,16.7885057 L1.70530257e-13,11.9923372 L1.70530257e-13,11.9923372 Z" id="Rectangle-Copy" fill="#FFFFFF"></path>
                                </g>
                                <g id="Group-Copy-12" transform="translate(297.941330, 170.291188)">
                                    <path d="M1.2,2.05169215e-13 L26.3880052,2.05169215e-13 C27.0507469,2.03281573e-13 27.5880052,0.5372583 27.5880052,1.2 L27.5880052,10.7931034 L27.5880052,10.7931034 L1.70530257e-13,10.7931034 L1.70530257e-13,1.2 C1.70671139e-13,0.5372583 0.5372583,2.06401182e-13 1.2,2.05169215e-13 Z" id="Rectangle" fill="#3399EE"></path>
                                    <path d="M1.70530257e-13,10.7931034 L27.5880052,10.7931034 L27.5880052,15.589272 C27.5880052,16.2520137 27.0507469,16.789272 26.3880052,16.789272 L1.2,16.789272 C0.5372583,16.789272 1.72310275e-13,16.2520137 1.70530257e-13,15.589272 L1.70530257e-13,10.7931034 L1.70530257e-13,10.7931034 Z" id="Rectangle-Copy" fill="#FFFFFF"></path>
                                </g>
                                <g id="Group-Copy-13" transform="translate(297.941330, 213.463602)">
                                    <path d="M1.2,-3.39284156e-13 L26.3880052,-3.39284156e-13 C27.0507469,-3.394059e-13 27.5880052,0.5372583 27.5880052,1.2 L27.5880052,8.39463602 L27.5880052,8.39463602 L1.70530257e-13,8.39463602 L1.70530257e-13,1.2 C1.70449094e-13,0.5372583 0.5372583,-3.38940368e-13 1.2,-3.39284156e-13 Z" id="Rectangle" fill="#3399EE"></path>
                                    <path d="M1.70530257e-13,8.39463602 L27.5880052,8.39463602 L27.5880052,11.9915709 C27.5880052,12.6543126 27.0507469,13.1915709 26.3880052,13.1915709 L1.2,13.1915709 C0.5372583,13.1915709 1.71721642e-13,12.6543126 1.70530257e-13,11.9915709 L1.70530257e-13,8.39463602 L1.70530257e-13,8.39463602 Z" id="Rectangle-Copy" fill="#FFFFFF"></path>
                                </g>
                                <g id="Group-Copy-14" transform="translate(297.941330, 261.432950)" fill="#F9F9F9">
                                    <rect id="Rectangle" x="0" y="0" width="27.5880052" height="23" rx="1.2"></rect>
                                </g>
                                <g id="Group-Copy-8" transform="translate(595.411995, 141.509579)">
                                    <path d="M1.2,1.0658141e-13 L26.3880052,1.0658141e-13 C27.0507469,1.06459667e-13 27.5880052,0.5372583 27.5880052,1.2 L27.5880052,8.39463602 L27.5880052,8.39463602 L1.70530257e-13,8.39463602 L1.70530257e-13,1.2 C1.70671139e-13,0.5372583 0.5372583,1.0603702e-13 1.2,1.0658141e-13 Z" id="Rectangle" fill="#3399EE"></path>
                                    <path d="M1.70530257e-13,8.39463602 L27.5880052,8.39463602 L27.5880052,11.9915709 C27.5880052,12.6543126 27.0507469,13.1915709 26.3880052,13.1915709 L1.2,13.1915709 C0.5372583,13.1915709 1.71943687e-13,12.6543126 1.70530257e-13,11.9915709 L1.70530257e-13,8.39463602 L1.70530257e-13,8.39463602 Z" id="Rectangle-Copy" fill="#FFFFFF"></path>
                                </g>
                                <g id="Group-Copy-10" transform="translate(595.411995, 178.685824)" fill="#3399EE">
                                    <rect id="Rectangle" x="1.70530257e-13" y="9.9475983e-14" width="27.5880052" height="8.39463602" rx="1.2"></rect>
                                </g>
                                <g id="Group-Copy-9" transform="translate(595.411995, 214.662835)">
                                    <path d="M1.2,1.0658141e-13 L26.3880052,1.0658141e-13 C27.0507469,1.06459667e-13 27.5880052,0.5372583 27.5880052,1.2 L27.5880052,8.39463602 L27.5880052,8.39463602 L1.70530257e-13,8.39463602 L1.70530257e-13,1.2 C1.70671139e-13,0.5372583 0.5372583,1.0603702e-13 1.2,1.0658141e-13 Z" id="Rectangle" fill="#3399EE"></path>
                                    <path d="M1.70530257e-13,8.39463602 L27.5880052,8.39463602 L27.5880052,11.9915709 C27.5880052,12.6543126 27.0507469,13.1915709 26.3880052,13.1915709 L1.2,13.1915709 C0.5372583,13.1915709 1.71943687e-13,12.6543126 1.70530257e-13,11.9915709 L1.70530257e-13,8.39463602 L1.70530257e-13,8.39463602 Z" id="Rectangle-Copy" fill="#FFFFFF"></path>
                                </g>
                                <g id="Group-Copy-3" transform="translate(595.411995, 0.000000)">
                                    <path d="M1.2,0 L26.3880052,0 C27.0507469,-1.8876423e-15 27.5880052,0.5372583 27.5880052,1.2 L27.5880052,45.5708812 L27.5880052,45.5708812 L1.70530257e-13,45.5708812 L1.70530257e-13,1.2 C1.70449094e-13,0.5372583 0.5372583,-3.87505921e-15 1.2,0 Z" id="Rectangle" fill="#3399EE"></path>
                                    <path d="M1.70530257e-13,45.5708812 L27.5880052,45.5708812 L27.5880052,55.1639847 C27.5880052,55.8267264 27.0507469,56.3639847 26.3880052,56.3639847 L1.2,56.3639847 C0.5372583,56.3639847 1.71721642e-13,55.8267264 1.70530257e-13,55.1639847 L1.70530257e-13,45.5708812 L1.70530257e-13,45.5708812 Z" id="Rectangle-Copy" fill="#FFFFFF"></path>
                                </g>
                                <g id="Group-Copy-11" transform="translate(595.411995, 255.436782)" fill="#3399EE">
                                    <path d="M1.2,-1.95399252e-13 L26.3880052,-1.95399252e-13 C27.0507469,-1.97286895e-13 27.5880052,0.5372583 27.5880052,1.2 L27.5880052,40.7739464 L27.5880052,40.7739464 L1.70530257e-13,40.7739464 L1.70530257e-13,1.2 C1.70449094e-13,0.5372583 0.5372583,-1.92390929e-13 1.2,-1.95399252e-13 Z" id="Rectangle"></path>
                                </g>
                            </g>
                            <path d="M297.470665,83.9463602 L325.05867,83.9463602 L325.05867,103.133333 C325.05867,103.796075 324.521412,104.333333 323.85867,104.333333 L298.670665,104.333333 C298.007923,104.333333 297.470665,103.796075 297.470665,103.133333 L297.470665,83.9463602 L297.470665,83.9463602 Z" id="Rectangle-Copy" fill="#FFFFFF"></path>
                            <rect id="Rectangle" fill-opacity="0.3" fill="#3399EE" x="27.5880052" y="0" width="269.88266" height="83.9463602"></rect>
                            <path d="M27.5880052,83.9463602 C53.7481233,84.5481298 77.5049817,86.7467249 98.8585805,90.5421456 C170.550124,103.284708 170.550124,114.077811 242.241667,126.820374 C263.054592,130.519694 281.464258,132.218139 297.470665,131.915709 L297.470665,143.908046 C281.385583,144.057244 262.897242,142.205566 242.005641,138.353013 C169.64119,125.008515 169.64119,114.215412 97.2767391,100.870915 C76.4504208,97.0303999 53.2208428,94.7867105 27.5880052,94.1398467 L27.5880052,83.9463602 Z" id="Rectangle-Copy-4" fill-opacity="0.301109047" fill="#3399EE"></path>
                            <path d="M622.529335,31.2374401 C648.689453,31.8490078 672.446312,33.7865955 693.79991,37.0502031 C765.491453,48.007282 765.491453,67.0470552 837.182996,78.0041341 C857.995922,81.1851072 876.405588,82.3268639 892.411995,81.4294043 L892.411995,87.9208235 C876.484264,88.5294167 858.074598,87.1773458 837.182996,83.8646109 C764.818546,72.38994 764.58252,55.1769658 692.218069,43.7022949 C671.391751,40.3999117 648.162173,38.4235484 622.529335,37.7732051 L622.529335,31.2374401 Z" id="Rectangle-Copy-11" fill-opacity="0.3" fill="#3399EE"></path>
                            <path d="M622.529335,66.2357044 C648.689453,66.8472721 672.446312,68.7848598 693.79991,72.0484674 C765.491453,83.0055463 765.491453,76.5835615 837.182996,87.5406404 C857.995922,90.7216135 876.405588,90.8955683 892.411995,88.0625047 L893.091593,94.3798643 C876.553446,99.744243 857.838572,100.770065 836.946971,97.4573298 C764.58252,85.9826589 764.58252,90.1752301 692.218069,78.7005592 C671.391751,75.398176 648.162173,73.4218127 622.529335,72.7714694 L622.529335,66.2357044 Z" id="Rectangle-Copy-12" fill-opacity="0.3" fill="#3399EE"></path>
                            <path d="M622.529335,127.778411 C649.10528,128.138142 672.862139,129.517241 693.79991,131.915709 C741.594272,139.220428 807.798301,126.70848 892.411995,94.3798643 L892.411995,103.1341 C807.192345,134.406348 740.461036,146.217581 692.218069,138.567801 C671.391751,135.265417 648.162173,133.847543 622.529335,134.314176 L622.529335,127.778411 Z" id="Rectangle-Copy-13" fill-opacity="0.3" fill="#3399EE"></path>
                            <path d="M325.05867,31.1800766 C351.218788,31.7818463 374.975647,33.9804414 396.329245,37.7758621 C468.020788,50.5184244 468.020788,48.119957 539.712332,60.8625194 C560.525257,64.56184 578.934923,66.260285 594.94133,65.9578544 L594.94133,79.7490421 C578.856248,77.8990607 560.367907,75.0477933 539.476306,71.1952399 C467.111855,57.8507427 467.181876,62.7727753 394.817425,49.428278 C373.991107,45.5877632 350.738188,46.1008148 325.05867,50.967433 L325.05867,31.1800766 Z" id="Rectangle-Copy-9" fill-opacity="0.3" fill="#3399EE"></path>
                            <path d="M325.05867,50.967433 C341.50242,52.401185 353.555936,53.4622035 361.219216,54.1504885 C373.567132,55.2595285 385.787518,54.981418 396.329245,58.7624521 C466.543345,83.9463602 468.020788,243.595053 539.712332,256.337615 C560.525257,260.036936 578.934923,261.735381 594.94133,261.43295 L594.94133,283.618774 C578.856248,283.767972 560.367907,281.916294 539.476306,278.063741 C467.111855,264.719243 470.546726,108.994986 398.182275,86.9444444 C377.355957,83.1039296 352.981422,82.1045682 325.05867,83.9463602 L325.05867,50.967433 Z" id="Rectangle-Copy-10" fill-opacity="0.295536495" fill="#FFFFFF"></path>
                            <path d="M27.5880052,94.1398467 C53.7481233,96.6529322 77.5049817,99.8071852 98.8585805,103.602606 C170.550124,116.345168 170.550124,156.050991 242.241667,168.793554 C263.054592,172.492874 281.464258,174.19132 297.470665,173.888889 L297.470665,188.279693 C281.385583,186.829913 262.897242,184.178746 242.005641,180.326193 C169.64119,166.981695 169.64119,127.275872 97.2767391,113.931375 C76.4504208,110.09086 53.2208428,106.891513 27.5880052,104.333333 L27.5880052,94.1398467 Z" id="Rectangle-Copy-5" fill-opacity="0.301272946" fill="#3399EE"></path>
                            <path d="M27.5870887,104.333333 C53.7478178,106.936607 77.5049817,110.135954 98.8585805,113.931375 C170.550124,126.673937 170.550124,197.424555 242.241667,210.167117 C263.054592,213.866438 281.464258,215.764755 297.470665,215.862069 L297.470665,223.057484 C277.099165,222.360599 258.689499,220.342688 242.241667,217.00375 C165.316516,199.126334 156.326767,126.843166 97.6912309,119.995079 C58.6008737,115.429687 35.2328262,113.408241 27.5870887,113.930741 L27.5870887,104.333333 Z" id="Rectangle-Copy-6" fill-opacity="0.301109047" fill="#3399EE"></path>
                            <path d="M27.5880052,113.930741 C53.2837191,114.215595 76.8083754,116.255732 98.1619742,120.051153 C169.853517,132.793715 170.55104,232.202332 242.242583,244.944895 C263.055509,248.644215 281.465175,250.542533 297.471581,250.639847 L297.471581,261.43295 C277.100082,258.337607 258.690415,255.120466 242.242583,251.781528 C165.317433,233.904112 155.294558,135.399214 97.6921475,125.4347 C59.2905402,118.791691 35.9224928,117.431948 27.5880052,121.355472 L27.5880052,113.930741 Z" id="Rectangle-Copy-7" fill-opacity="0.301109047" fill="#3399EE"></path>
                            <rect id="Rectangle-Copy-2" fill-opacity="0.3" fill="#3399EE" x="325.05867" y="0" width="269.88266" height="31.1800766"></rect>
                            <polygon id="Rectangle-Copy-3" fill-opacity="0.3" fill="#3399EE" points="622.529335 0 892.411995 0 892.411995 38.3754789 622.529335 31.1800766"></polygon>
                            <path d="M622.529335,172.323607 C660.395563,171.934595 687.026953,167.386548 702.423505,158.679467 C752.944669,130.10866 766.45504,80.348659 817.756912,51.4336475 C836.633803,40.7941625 867.276994,40.1134887 893.091593,38.3754789" id="Path" stroke-opacity="0.304031906" stroke="#3399EE" stroke-width="3.6"></path>
                            <path d="M325.05867,137.911877 C322.05685,137.969821 346.390021,137.969821 398.058181,137.911877 C475.560422,137.824961 526.973695,165.046089 550.501902,169.467489 C574.030109,173.888889 594.94133,175.687739 594.94133,175.687739" id="Path-2" stroke-opacity="0.296929633" stroke="#3399EE" stroke-width="9.6" stroke-linecap="round"></path>
                            <path d="M325.05867,182.883142 C334.39055,183.682631 352.535005,183.083014 379.492035,181.084291 C487.550398,173.072328 534.298113,82.2848144 594.94133,83.9463602" id="Path-3" stroke-opacity="0.296929633" stroke="#3399EE" stroke-width="9.6"></path>
                            <path d="M325.05867,220.059387 C335.725907,220.858876 346.834359,220.059387 358.384025,217.66092 C517.635016,184.589979 545.322266,131.299265 594.94133,133.574807" id="Path-4" stroke-opacity="0.296929633" stroke="#3399EE" stroke-width="7.2"></path>
                            <path d="M325.05867,256.036398 C353.530666,255.636654 370.115643,255.436782 374.8136,255.436782 C512.399164,255.436782 530.535445,216.652937 594.94133,217.66092" id="Path-5" stroke-opacity="0.300371503" stroke="#FFFFFF" stroke-width="8.4"></path>
                            <path d="M622.529335,134.314176 C645.171179,135.80315 658.809781,136.802512 663.445139,137.312261 C840.651687,156.799601 836.78618,146.90613 893.091593,142.708812" id="Path-6" stroke-opacity="0.299306163" stroke="#3399EE" stroke-width="2.4"></path>
                            <path d="M622.529335,137.312261 C653.378503,138.562359 675.042001,140.561082 687.519828,143.308429 C780.509737,163.782792 844.749958,181.55697 892.411995,181.388272" id="Path-7" stroke-opacity="0.299306163" stroke="#3399EE" stroke-width="2.4"></path>
                            <path d="" id="Path-8" stroke="#979797" stroke-width="1.2"></path>
                            <path d="M622.529335,175.687739 C650.016863,175.148784 669.628943,175.148784 681.365574,175.687739 C779.131753,180.177243 847.169419,184.759867 892.411995,184.082375" id="Path-9" stroke-opacity="0.295044799" stroke="#3399EE" stroke-width="2.4"></path>
                            <path d="M30,159 C45.9571454,159 60.3734892,159 73.2490312,159 C243.690225,159 209.932149,145.884298 297,147.076634" id="Path-11" stroke-opacity="0.411248907" stroke="#BCBCBC" stroke-width="6" fill-opacity="0.3" fill="#FFFFFF" stroke-linecap="square"></path>
                            <path d="M325.05867,86.9444444 C345.295184,86.9444444 365.851091,86.9444444 386.726389,86.9444444 C509.682817,86.9444444 522.899708,32.9632239 594.94133,34.7777778" id="Path-13" stroke-opacity="0.3" stroke="#FFFFFF" stroke-width="6" stroke-linecap="round"></path>
                            <path d="M325.05867,93.5286899 C431.867832,96.1953566 520.937623,97.5286899 592.268043,97.5286899 C663.598463,97.5286899 574.528672,96.1953566 325.05867,93.5286899 Z" id="Path-14" stroke-opacity="0.299114948" stroke="#FFFFFF" stroke-width="7.2"></path>
                            <path d="M325.05867,98.3371648 C345.452147,99.936143 362.699336,100.735632 376.800236,100.735632 C544.377468,100.735632 539.547499,142.115768 594.94133,141.641551" id="Path-16" stroke-opacity="0.300125656" stroke="#FFFFFF" stroke-width="3.6"></path>
                            <path d="M325.05867,100.735632 C345.452147,102.329376 362.699336,103.126248 376.800236,103.126248 C544.377468,103.126248 539.547499,182.889714 594.94133,182.415497" id="Path-16-Copy" stroke-opacity="0.298076923" stroke="#FFFFFF" stroke-width="3.6" stroke-linecap="round"></path>
                            <path d="M325.05867,102.958927 C345.452147,104.552671 362.699336,105.349543 376.800236,105.349543 C544.377468,105.349543 539.547499,223.663661 594.94133,223.189443" id="Path-16-Copy-2" stroke-opacity="0.297503278" stroke="#FFFFFF" stroke-width="2.4" stroke-linecap="round"></path>
                            <path d="M324.870104,223.599617 C354.753648,223.199872 375.767389,223 387.911328,223 C534.615355,223 456.16504,284.756509 595,283.403201" id="Path-17" stroke-opacity="0.304441652" stroke="#FFFFFF" stroke-width="2.4" fill-opacity="0.12" fill="#282C47" stroke-linecap="round"></path>
                            <path d="M324.811434,259.96529 C354.694978,259.565546 375.708719,259.365673 387.852657,259.365673 C534.556685,259.365673 456.10637,288.411681 594.94133,287.058373" id="Path-17-Copy" stroke-opacity="0.12" stroke="#282C47" stroke-width="2.4" fill-opacity="0.12" fill="#282C47" stroke-linecap="square"></path>
                            <path d="M622.529335,215.190273 C629.995326,214.039159 643.656574,213.463602 663.513079,213.463602 C779.277608,213.463602 784.633053,43.3608684 892.491854,43.3608684" id="Path-18" stroke-opacity="0.304031906" stroke="#3399EE" stroke-width="3.6" stroke-linecap="round"></path>
                            <path d="M623.129074,73.3490691 C643.745111,73.3490691 644.138399,70.9878811 662.402624,74.6719738 C814.48946,105.349543 814.48946,147.326729 893.091593,144.960454" id="Path-19" stroke-opacity="0.299306163" stroke="#3399EE" stroke-width="2.4" stroke-linecap="round"></path>
                            <path d="M621.929596,75.5517241 C654.466491,79.9489144 687.46985,91.541507 720.939673,110.329502 C817.933557,164.776178 823.076552,185.182729 892.411995,184.149325" id="Path-20" stroke-opacity="0.299306163" stroke="#3399EE" stroke-width="2.4"></path>
                            <line x1="622.5" y1="223.5" x2="893.161997" y2="225" id="Path-21" stroke-opacity="0.304714816" stroke="#FFFFFF" stroke-width="4.6" stroke-linecap="round"></line>
                            <path d="M622.467511,93.5402299 C661.956146,95.8362315 696.820623,117.04837 727.460611,145.640836 C744.351268,161.402772 757.72868,176.825207 770.321749,194.163034 C776.339007,202.447447 793.917622,228.821197 797.402604,233.621074 C820.447254,265.360548 843.944248,279.495663 892.636529,278.536214 L892.187461,255.755198 C869.772836,256.196863 854.274055,251.097366 842.681945,245.307157 C832.78533,240.363841 825.152416,233.053906 815.845735,220.235783 C812.719088,215.929442 795.138937,189.553386 788.76244,180.774383 C775.350856,162.309644 761.025591,145.794457 743.010991,128.983685 C708.538663,96.814976 667.342195,79.5891868 622.467511,76.9800223 L622.467511,93.5402299 Z" id="Path-22" fill-opacity="0.3" fill="#3399EE" fill-rule="nonzero"></path>
                            <path d="M622.529335,179.716424 C685.248099,187.80938 723.45961,196.217286 737.163869,204.940142 C801.956699,246.181228 817.363537,286.167948 892.411995,283.618774" id="Path-23" stroke-opacity="0.299715909" stroke="#3399EE" stroke-width="9.6"></path>
                            <path d="M621.929596,184.186508 C685.048186,198.893277 723.45961,210.60809 737.163869,219.330946 C801.956699,260.572033 817.363537,300.558753 892.411995,298.009579" id="Path-23-Copy" stroke-opacity="0.12" stroke="#282C47" stroke-width="4.8"></path>
                            <path d="M621.929596,221.858238 C655.803675,219.8902 689.948739,229.319539 721.356783,236.968692 C742.410143,242.096052 760.265337,247.82209 776.006094,254.254434 C788.629057,259.412715 799.320021,264.742478 810.944287,271.374663 C812.314435,272.156396 831.603774,283.562747 836.950805,286.405046 C854.504164,295.735811 870.136141,296.210728 892.636529,296.210728 C892.636529,295.467872 892.636529,294.994542 892.636529,294.790737 C892.636529,292.408405 892.561684,290.201612 892.411995,288.170358 C871.733941,288.170358 858.055006,285.39955 842.018634,276.875163 C836.928548,274.169447 817.853812,262.889997 816.294848,262.000536 C804.286609,255.149276 793.183209,249.613902 780.090428,244.263633 C763.842203,237.623915 745.476152,231.73405 723.911714,226.482221 C691.450653,218.576615 657.397892,218.329788 622.467511,220.359195 L621.929596,221.858238 Z" id="Path-24" fill-opacity="0.3" fill="#3399EE" fill-rule="nonzero"></path>
                            <path d="M623.129074,225.455939 C676.333894,230.70499 711.248921,236.7378 727.874158,243.554368 C800.100292,273.168043 836.995893,305.150435 892.411995,302.982963" id="Path-25" stroke-opacity="0.12" stroke="#282C47" stroke-width="3.6"></path>
                            <g id="Group">
                                <path d="M1.2,1.42108547e-14 L26.3880052,1.42108547e-14 C27.0507469,1.58550097e-14 27.5880052,0.5372583 27.5880052,1.2 L27.5880052,136.712644 L27.5880052,136.712644 L1.75859327e-13,136.712644 L1.75859327e-13,1.2 C1.75778165e-13,0.5372583 0.5372583,3.1430033e-14 1.2,1.42108547e-14 Z" id="Rectangle" fill="#3399EE"></path>
                                <path d="M0,136.712644 L27.5880052,136.712644 L27.5880052,160.512644 C27.5880052,161.175385 27.0507469,161.712644 26.3880052,161.712644 L1.2,161.712644 C0.5372583,161.712644 1.2531991e-15,161.175385 0,160.512644 L0,136.712644 L0,136.712644 Z" id="Rectangle-Copy" fill="#F8F9FA"></path>
                            </g>
                            <g id="Group-Copy-6" transform="translate(297.470665, 131.915709)">
                                <path d="M1.2,1.86517468e-14 L26.3880052,1.86517468e-14 C27.0507469,1.85300031e-14 27.5880052,0.5372583 27.5880052,1.2 L27.5880052,11.9923372 L27.5880052,11.9923372 L1.08002496e-12,11.9923372 L1.08002496e-12,1.2 C1.0799438e-12,0.5372583 0.5372583,1.81073567e-14 1.2,1.86517468e-14 Z" id="Rectangle" fill="#3399EE"></path>
                                <path d="M1.08002496e-12,11.9923372 L27.5880052,11.9923372 L27.5880052,16.7885057 C27.5880052,17.4512474 27.0507469,17.9885057 26.3880052,17.9885057 L1.2,17.9885057 C0.5372583,17.9885057 1.08121634e-12,17.4512474 1.08002496e-12,16.7885057 L1.08002496e-12,11.9923372 L1.08002496e-12,11.9923372 Z" id="Rectangle-Copy" fill="#FFFFFF"></path>
                            </g>
                        </g>
                        <g id="Group-4" transform="translate(32.000000, 5.000000)">
                            <g id="Group-2" transform="translate(297.000000, 61.000000)">
                                <g id="Combined-Shape">
                                    <use fill="black" fill-opacity="1" filter="url(#filter-2)" xlink:href="#path-1"></use>
                                    <use fill="#F2BB42" fill-rule="evenodd" xlink:href="#path-1"></use>
                                </g>
                                <polygon id="Triangle" fill="#F2BB42" transform="translate(2.000000, 13.000000) rotate(-90.000000) translate(-2.000000, -13.000000) " points="2 11 4 15 -3.55271368e-15 15"></polygon>
                                <text id="New-Opportunity" font-family="OpenSans-Bold, Open Sans" font-size="12" font-weight="bold" letter-spacing="-0.0230769256" fill="#FFFFFF">
                                    <tspan x="11" y="17">New Opportunity</tspan>
                                </text>
                            </g>
                            <g id="Group-2">
                                <g id="Combined-Shape">
                                    <use fill="black" fill-opacity="1" filter="url(#filter-4)" xlink:href="#path-3"></use>
                                    <use fill="#F2BB42" fill-rule="evenodd" xlink:href="#path-3"></use>
                                </g>
                                <polygon id="Triangle" fill="#F2BB42" transform="translate(2.000000, 13.000000) rotate(-90.000000) translate(-2.000000, -13.000000) " points="2 11 4 15 -3.55271368e-15 15"></polygon>
                                <text id="New-Opportunity" font-family="OpenSans-Bold, Open Sans" font-size="12" font-weight="bold" letter-spacing="-0.0230769256" fill="#FFFFFF">
                                    <tspan x="11" y="17">New Opportunity</tspan>
                                </text>
                            </g>
                            <g id="Group-2" transform="translate(595.000000, 26.000000)">
                                <g id="Combined-Shape">
                                    <use fill="black" fill-opacity="1" filter="url(#filter-6)" xlink:href="#path-5"></use>
                                    <use fill="#F2BB42" fill-rule="evenodd" xlink:href="#path-5"></use>
                                </g>
                                <polygon id="Triangle" fill="#F2BB42" transform="translate(2.000000, 13.000000) rotate(-90.000000) translate(-2.000000, -13.000000) " points="2 11 4 15 -3.55271368e-15 15"></polygon>
                                <text id="New-Opportunity" font-family="OpenSans-Bold, Open Sans" font-size="12" font-weight="bold" letter-spacing="-0.0230769256" fill="#FFFFFF">
                                    <tspan x="11" y="17">New Opportunity</tspan>
                                </text>
                            </g>
                            <g id="Group-2" transform="translate(0.000000, 256.000000)">
                                <g id="Combined-Shape">
                                    <use fill="black" fill-opacity="1" filter="url(#filter-8)" xlink:href="#path-7"></use>
                                    <use fill="#F2BB42" fill-rule="evenodd" xlink:href="#path-7"></use>
                                </g>
                                <polygon id="Triangle" fill="#F2BB42" transform="translate(2.000000, 13.000000) rotate(-90.000000) translate(-2.000000, -13.000000) " points="2 11 4 15 -3.55271368e-15 15"></polygon>
                                <text id="New-Opportunity" font-family="OpenSans-Bold, Open Sans" font-size="12" font-weight="bold" letter-spacing="-0.0230769256" fill="#FFFFFF">
                                    <tspan x="11" y="17">New Opportunity</tspan>
                                </text>
                            </g>
                        </g>
                    </g>
                </g>
            </g>
            <path d="M286,623.044453 L324.873463,623.044453 C338.413166,623.044453 352.520005,629.154331 368.033081,641.117651 C380.597494,650.80703 392.515131,662.744334 410.685348,682.92514 C410.559644,682.785526 424.063748,697.8645 427.840675,702.010251 C434.308995,709.110213 439.610597,714.690157 444.653372,719.631458 C457.264907,731.989212 467.927709,739.951813 478.251091,743.945582 C489.007001,748.106681 499.910384,750.435801 511.767851,751.415157 C520.588489,752.143689 527.561365,752.137871 542.018506,751.692568 C549.321029,751.467639 552.238508,751.398956 556,751.398956 L556,739.695245 C552.067275,739.695245 549.072547,739.765747 541.639722,739.99469 C527.634374,740.426076 520.99445,740.431617 512.78044,739.753188 C502.038512,738.865969 492.276121,736.780582 482.675616,733.06647 C474.219916,729.795245 464.707479,722.691695 453.158412,711.375028 C448.300638,706.615006 443.141697,701.185213 436.81109,694.236412 C433.07423,690.134641 419.606684,675.096488 419.702178,675.202548 C401.0788,654.518439 388.769399,639.847982 375.475877,629.596331 C358.033258,616.144994 341.536485,609 324.873463,609 L286,609 L286,623.044453 Z" id="Path-12-Copy" fill-opacity="0.303949956" fill="#FFFFFF" fill-rule="nonzero"></path>
        </g>
    </g>
</svg>