<?xml version="1.0" encoding="UTF-8"?>
<svg width="44px" height="44px" viewBox="0 0 44 44" version="1.1" xmlns="http://www.w3.org/2000/svg" xmlns:xlink="http://www.w3.org/1999/xlink">
    <!-- Generator: Sketch 61.2 (89653) - https://sketch.com -->
    <title>Path</title>
    <desc>Created with Sketch.</desc>
    <g id="Symbols" stroke="none" stroke-width="1" fill="none" fill-rule="evenodd">
        <g id="icon-/-section3" transform="translate(-2.000000, -2.000000)">
            <path d="M24,2 C11.856,2 2,11.856 2,24 C2,36.144 11.856,46 24,46 C36.144,46 46,36.144 46,24 C46,11.856 36.144,2 24,2 Z" id="Path" fill="#000000"></path>
            <g id="ring-chart" transform="translate(11.000000, 11.000000)" fill="#FFFFFF" fill-rule="nonzero">
                <path d="M16.1032258,19.0666667 C15.9354839,18.8933333 15.683871,18.8066667 15.516129,18.98 C14.5096774,19.6733333 13.3354839,20.02 12.1612903,20.02 C8.72258065,20.02 5.87096774,17.0733333 5.87096774,13.52 C5.87096774,10.5733333 7.8,7.97333333 10.5677419,7.19333333 C10.7354839,7.10666667 10.9032258,6.93333333 10.9032258,6.76 L10.9032258,1.47333333 C10.9032258,1.21333333 10.7354839,1.04 10.483871,1.04 L10.316129,1.04 C4.44516129,1.90666667 -3.64153152e-13,7.28 -3.64153152e-13,13.4333333 C-3.64153152e-13,20.3666667 5.4516129,26 12.1612903,26 C14.5935484,26 16.9419355,25.22 18.9548387,23.8333333 C19.0387097,23.7466667 19.1225806,23.66 19.1225806,23.5733333 C19.1225806,23.4866667 19.1225806,23.3133333 19.0387097,23.2266667 L16.1032258,19.0666667 Z" id="Path"></path>
                <path d="M13,6.06666667 C16.4387097,6.06666667 19.2903226,9.01333333 19.2903226,12.5666667 C19.2903226,12.8266667 19.4580645,13 19.7096774,13 L24.7419355,13 C24.9935484,13 25.1612903,12.8266667 25.1612903,12.5666667 C25.1612903,5.63333333 19.7096774,0 13,0 C12.7483871,0 12.5806452,0.173333333 12.5806452,0.433333333 L12.5806452,5.63333333 C12.5806452,5.89333333 12.7483871,6.06666667 13,6.06666667 Z" id="Path"></path>
                <path d="M24.7419355,13.8666667 L19.7096774,13.8666667 C19.4580645,13.8666667 19.2903226,14.04 19.2903226,14.3 C19.2903226,16.38 18.2,17.8533333 17.3612903,18.72 C17.1935484,18.8933333 17.1935484,19.1533333 17.3612903,19.3266667 L20.716129,23.2266667 C20.8,23.3133333 20.883871,23.4 21.0516129,23.4866667 L21.1354839,23.4866667 C21.2193548,23.4866667 21.3032258,23.4866667 21.3870968,23.4 C23.8193548,21.06 25.2451613,17.7666667 25.2451613,14.3 C25.1612903,14.04 24.9935484,13.8666667 24.7419355,13.8666667 Z" id="Path"></path>
            </g>
        </g>
    </g>
</svg>