<?xml version="1.0" encoding="UTF-8"?>
<svg width="44px" height="44px" viewBox="0 0 44 44" version="1.1" xmlns="http://www.w3.org/2000/svg" xmlns:xlink="http://www.w3.org/1999/xlink">
    <!-- Generator: Sketch 61.2 (89653) - https://sketch.com -->
    <title>icon / section3</title>
    <desc>Created with Sketch.</desc>
    <g id="Page-1" stroke="none" stroke-width="1" fill="none" fill-rule="evenodd">
        <g id="Funnels-Copy" transform="translate(-237.000000, -2496.000000)">
            <rect fill="#FFFFFF" x="0" y="0" width="1440" height="4573"></rect>
            <rect id="Rectangle" fill="#F8F9FA" x="0" y="1955" width="1440" height="1132"></rect>
            <g id="Group-12-Copy-2" transform="translate(235.000000, 2494.000000)">
                <g id="icon-/-section3-copy-14">
                    <path d="M24,2 C11.856,2 2,11.856 2,24 C2,36.144 11.856,46 24,46 C36.144,46 46,36.144 46,24 C46,11.856 36.144,2 24,2 Z" id="Path" fill="#000000"></path>
                    <g id="ic-subtitles-24px" stroke-width="1" transform="translate(8.000000, 16.000000)">
                        <polygon id="Path" points="0 0 24 0 24 24 0 24"></polygon>
                    </g>
                    <g id="money-bag" stroke-width="1" transform="translate(18.000000, 17.000000)" fill="#000000">
                        <path d="M11.5,0 L0.5,0 C0.2,0 0,0.2 0,0.5 C0,0.8 0.2,1 0.5,1 L11.5,1 C11.8,1 12,0.8 12,0.5 C12,0.2 11.8,0 11.5,0 Z" id="Path" fill-rule="nonzero"></path>
                        <path d="M7,13.6 L7,17 C8.1,16.8 9,16.1 9,15.3 C9,14.3 8,13.8 7,13.6 Z" id="Path" fill-rule="nonzero"></path>
                        <path d="M4,10.8 C4,11.8 5,12.2 6,12.4 L6,9 C4.9,9.2 4,9.9 4,10.8 Z" id="Path" fill-rule="nonzero"></path>
                    </g>
                    <g id="secure-shopping.2" stroke-width="1" transform="translate(13.000000, 13.000000)" fill="#FFFFFF">
                        <path d="M21.2928571,2.78666667 L11.0785714,0 C11,0 11,0 10.9214286,0 L0.707142857,2.78666667 C0.471428571,2.86 0.392857143,3.00666667 0.392857143,3.15333333 L0.392857143,13.3466667 C0.392857143,17.38 7.22857143,20.9733333 10.9214286,22 C10.9214286,22 11,22 11,22 C11,22 11.0785714,22 11.0785714,22 C14.7714286,20.9733333 21.6071429,17.38 21.6071429,13.3466667 L21.6071429,3.15333333 C21.6071429,3.00666667 21.5285714,2.86 21.2928571,2.78666667 Z M9.42857143,16.8666667 C8.8,16.8666667 8.25,16.3533333 8.25,15.7666667 C8.25,15.18 8.8,14.6666667 9.42857143,14.6666667 C10.0571429,14.6666667 10.6071429,15.18 10.6071429,15.7666667 C10.6071429,16.3533333 10.0571429,16.8666667 9.42857143,16.8666667 Z M13.3571429,16.8666667 C12.7285714,16.8666667 12.1785714,16.3533333 12.1785714,15.7666667 C12.1785714,15.18 12.7285714,14.6666667 13.3571429,14.6666667 C13.9857143,14.6666667 14.5357143,15.18 14.5357143,15.7666667 C14.5357143,16.3533333 13.9857143,16.8666667 13.3571429,16.8666667 Z M16.3428571,12.0266667 C16.3428571,12.1733333 16.1857143,12.32 16.0285714,12.32 L7.77857143,13.1266667 L8.32857143,14.96 C8.40714286,15.18 8.25,15.3266667 8.01428571,15.4 C8.01428571,15.4 7.93571429,15.4 7.93571429,15.4 C7.77857143,15.4 7.62142857,15.3266667 7.54285714,15.1066667 L5.18571429,7.33333333 L3.92857143,7.33333333 C3.69285714,7.33333333 3.53571429,7.18666667 3.53571429,6.96666667 C3.53571429,6.74666667 3.69285714,6.6 3.92857143,6.6 L5.5,6.6 C5.65714286,6.6 5.81428571,6.74666667 5.89285714,6.89333333 L6.20714286,8.06666667 C6.20714286,8.06666667 6.20714286,8.06666667 6.28571429,8.06666667 L16.5,8.06666667 C16.5785714,8.06666667 16.7357143,8.14 16.8142857,8.21333333 C16.8928571,8.28666667 16.8928571,8.43333333 16.8928571,8.50666667 L16.3428571,12.0266667 Z" id="Shape" fill-rule="nonzero"></path>
                    </g>
                </g>
            </g>
        </g>
    </g>
</svg>