<?xml version="1.0" encoding="UTF-8"?>
<svg width="44px" height="44px" viewBox="0 0 44 44" version="1.1" xmlns="http://www.w3.org/2000/svg" xmlns:xlink="http://www.w3.org/1999/xlink">
    <!-- Generator: Sketch 61.2 (89653) - https://sketch.com -->
    <title>Icon / icon-account Copy</title>
    <desc>Created with Sketch.</desc>
    <g id="Page-1" stroke="none" stroke-width="1" fill="none" fill-rule="evenodd">
        <g id="Advertisers-Copy" transform="translate(-607.000000, -1799.000000)">
            <rect fill="#FFFFFF" x="0" y="0" width="1440" height="5012"></rect>
            <rect id="Rectangle" fill="#F8F9FA" x="535" y="1733" width="905" height="985"></rect>
            <g id="Icon-/-bulleted-Copy-3" transform="translate(605.000000, 1797.000000)">
                <polygon id="Shape" points="0 0 48 0 48 48 0 48"></polygon>
                <g id="target-group" stroke-width="1" fill-rule="evenodd" transform="translate(2.000000, 2.000000)" fill="#000000">
                    <path d="M13.75,17.2333333 C13.9333333,15.4 14.85,13.75 16.1333333,12.4666667 C15.7666667,12.1 15.2166667,11.9166667 14.6666667,11.9166667 C13.2,11.9166667 11.9166667,13.2 11.9166667,14.6666667 C11.9166667,15.95 12.65,16.8666667 13.75,17.2333333 Z" id="Path" fill-rule="nonzero"></path>
                    <circle id="Oval" fill-rule="nonzero" cx="22" cy="18.3333333" r="2.75"></circle>
                    <path d="M8.25,26.5833333 L11,26.5833333 C11.7333333,24.5666667 12.8333333,22.55 14.3,21.0833333 C14.1166667,20.5333333 13.9333333,19.9833333 13.9333333,19.4333333 C11,19.9833333 8.8,23.4666667 8.25,26.5833333 Z" id="Path" fill-rule="nonzero"></path>
                    <path d="M22,22.9166667 C18.8833333,22.9166667 16.1333333,26.7666667 15.5833333,30.25 L28.2333333,30.25 C27.8666667,26.7666667 25.1166667,22.9166667 22,22.9166667 Z" id="Path" fill-rule="nonzero"></path>
                    <path d="M37.5833333,22 C37.5833333,21.45 37.95,21.0833333 38.5,21.0833333 L43.0833333,21.0833333 C42.5333333,10.2666667 33.9166667,1.46666667 22.9166667,0.916666667 L22.9166667,7.33333333 C22.9166667,7.88333333 22.55,8.25 22,8.25 C21.45,8.25 21.0833333,7.88333333 21.0833333,7.33333333 L21.0833333,0.916666667 C10.2666667,1.46666667 1.46666667,10.0833333 0.916666667,21.0833333 L5.5,21.0833333 C6.05,21.0833333 6.41666667,21.45 6.41666667,22 C6.41666667,22.55 6.05,22.9166667 5.5,22.9166667 L0.916666667,22.9166667 C1.46666667,33.7333333 10.0833333,42.5333333 21.0833333,43.0833333 L21.0833333,36.6666667 C21.0833333,36.1166667 21.45,35.75 22,35.75 C22.55,35.75 22.9166667,36.1166667 22.9166667,36.6666667 L22.9166667,43.0833333 C33.7333333,42.5333333 42.5333333,33.9166667 43.0833333,22.9166667 L38.5,22.9166667 C37.95,22.9166667 37.5833333,22.55 37.5833333,22 Z M11.55,28.4166667 L7.33333333,28.4166667 C6.78333333,28.4166667 6.41666667,28.05 6.41666667,27.5 C6.41666667,24.0166667 8.61666667,19.8 11.7333333,18.15 C10.8166667,17.4166667 10.0833333,16.1333333 10.0833333,14.6666667 C10.0833333,12.1 12.1,10.0833333 14.6666667,10.0833333 C16.1333333,10.0833333 17.4166667,10.8166667 18.3333333,11.9166667 C18.7,12.2833333 18.5166667,12.8333333 18.15,13.2 C16.5,14.4833333 15.5833333,16.3166667 15.5833333,18.3333333 C15.5833333,19.25 15.7666667,20.1666667 16.1333333,20.9 C16.3166667,21.2666667 16.1333333,21.6333333 15.95,22 C14.3,23.4666667 13.2,25.6666667 12.4666667,27.8666667 C12.2833333,28.2333333 11.9166667,28.4166667 11.55,28.4166667 Z M29.3333333,32.0833333 L14.6666667,32.0833333 C14.1166667,32.0833333 13.75,31.7166667 13.75,31.1666667 C13.75,27.6833333 15.95,23.4666667 19.0666667,21.8166667 C17.9666667,20.9 17.4166667,19.8 17.4166667,18.3333333 C17.4166667,15.7666667 19.4333333,13.75 22,13.75 C24.5666667,13.75 26.5833333,15.7666667 26.5833333,18.3333333 C26.5833333,19.8 25.85,21.0833333 24.9333333,21.8166667 C28.05,23.4666667 30.25,27.5 30.25,31.1666667 C30.25,31.7166667 29.8833333,32.0833333 29.3333333,32.0833333 Z M36.6666667,28.4166667 L32.45,28.4166667 C32.0833333,28.4166667 31.7166667,28.2333333 31.5333333,27.6833333 C30.8,25.4833333 29.7,23.4666667 28.05,21.8166667 C27.6833333,21.6333333 27.6833333,21.0833333 27.8666667,20.7166667 C28.2333333,19.8 28.4166667,19.0666667 28.4166667,18.15 C28.4166667,16.1333333 27.5,14.3 25.85,13.0166667 C25.4833333,12.65 25.3,12.1 25.6666667,11.7333333 C26.5833333,10.6333333 27.8666667,9.9 29.3333333,9.9 C31.9,9.9 33.9166667,11.9166667 33.9166667,14.4833333 C33.9166667,15.95 33.1833333,17.2333333 32.2666667,17.9666667 C35.3833333,19.6166667 37.5833333,23.65 37.5833333,27.3166667 C37.5833333,28.05 37.2166667,28.4166667 36.6666667,28.4166667 Z" id="Shape" fill-rule="nonzero"></path>
                    <path d="M30.25,19.4333333 C30.25,19.9833333 30.0666667,20.5333333 29.8833333,21.0833333 C31.35,22.55 32.45,24.5666667 33.1833333,26.5833333 L35.75,26.5833333 C35.2,23.4666667 33,19.9833333 30.25,19.4333333 Z" id="Path" fill-rule="nonzero"></path>
                    <path d="M32.0833333,14.6666667 C32.0833333,13.2 30.8,11.9166667 29.3333333,11.9166667 C28.7833333,11.9166667 28.2333333,12.1 27.6833333,12.4666667 C28.9666667,13.75 29.8833333,15.4 30.0666667,17.2333333 C31.35,16.8666667 32.0833333,15.95 32.0833333,14.6666667 Z" id="Path" fill-rule="nonzero"></path>
                </g>
            </g>
        </g>
    </g>
</svg>