<?xml version="1.0" encoding="UTF-8"?>
<svg width="495px" height="272px" viewBox="0 0 495 272" version="1.1" xmlns="http://www.w3.org/2000/svg" xmlns:xlink="http://www.w3.org/1999/xlink">
    <!-- Generator: Sketch 61.2 (89653) - https://sketch.com -->
    <title>2nd section</title>
    <desc>Created with Sketch.</desc>
    <defs>
        <filter x="-0.7%" y="-1.7%" width="101.3%" height="103.5%" filterUnits="objectBoundingBox" id="filter-1">
            <feOffset dx="0" dy="1" in="SourceAlpha" result="shadowOffsetOuter1"></feOffset>
            <feGaussianBlur stdDeviation="2" in="shadowOffsetOuter1" result="shadowBlurOuter1"></feGaussianBlur>
            <feColorMatrix values="0 0 0 0 0   0 0 0 0 0   0 0 0 0 0  0 0 0 0.24 0" type="matrix" in="shadowBlurOuter1" result="shadowMatrixOuter1"></feColorMatrix>
            <feMerge>
                <feMergeNode in="shadowMatrixOuter1"></feMergeNode>
                <feMergeNode in="SourceGraphic"></feMergeNode>
            </feMerge>
        </filter>
        <filter x="-2.1%" y="-3.8%" width="104.3%" height="107.7%" filterUnits="objectBoundingBox" id="filter-2">
            <feOffset dx="0" dy="1" in="SourceAlpha" result="shadowOffsetOuter1"></feOffset>
            <feGaussianBlur stdDeviation="2" in="shadowOffsetOuter1" result="shadowBlurOuter1"></feGaussianBlur>
            <feColorMatrix values="0 0 0 0 0   0 0 0 0 0   0 0 0 0 0  0 0 0 0.24 0" type="matrix" in="shadowBlurOuter1" result="shadowMatrixOuter1"></feColorMatrix>
            <feMerge>
                <feMergeNode in="shadowMatrixOuter1"></feMergeNode>
                <feMergeNode in="SourceGraphic"></feMergeNode>
            </feMerge>
        </filter>
    </defs>
    <g id="Page-1" stroke="none" stroke-width="1" fill="none" fill-rule="evenodd">
        <g id="Home-Copy-7" transform="translate(-163.000000, -2473.000000)">
            <g id="Group-9-Copy" transform="translate(-91.000000, 2268.000000)">
                <g id="First-section" filter="url(#filter-1)" fill="#282C47">
                    <g id="Group-Copy" transform="translate(0.000000, 0.888001)">
                        <rect id="Rectangle" x="0" y="0.111999059" width="1586" height="601"></rect>
                    </g>
                </g>
                <g id="2nd-section" filter="url(#filter-2)" transform="translate(258.000000, 204.000000)">
                    <g id="Group" fill="#FFFFFF" font-family="OpenSans, Open Sans" font-size="11.0400002" font-weight="normal">
                        <text id="Tier">
                            <tspan x="0.0400002003" y="12.9360002">Tier</tspan>
                        </text>
                        <text id="Rate">
                            <tspan x="93" y="13">Rate</tspan>
                        </text>
                        <text id="Rate">
                            <tspan x="168" y="13">Rate</tspan>
                        </text>
                        <text id="Confidence">
                            <tspan x="246.232005" y="12.9360002">Confidence</tspan>
                        </text>
                        <text id="Purchase-%">
                            <tspan x="336" y="13">Purchase %</tspan>
                        </text>
                        <text id="Purchase">
                            <tspan x="440" y="13">Purchase</tspan>
                        </text>
                    </g>
                    <g id="Group-Copy" transform="translate(4.000000, 39.432001)">
                        <g id="Group-2">
                            <text id="0.252" font-family="OpenSans, Open Sans" font-size="8.83200016" font-weight="normal" fill="#FFFFFF">
                                <tspan x="332.760006" y="11.3520003">0.252</tspan>
                            </text>
                            <path d="M243.336005,12.0160002 C244.755521,10.2163649 246.1734,9.31654717 247.589642,9.31654717 C249.714006,9.31654717 250.607539,12.0160002 253.285857,12.0160002 C255.964175,12.0160002 261.357364,6.03436717 264.65815,5.78182808 C267.958936,5.52928899 272.254837,8.92390072 276.629643,8.92390072 C281.00445,8.92390072 286.408631,3.49505772 289.935213,1.88695822 C292.158903,0.872969033 294.225835,0.291983033 296.136007,0.14400022" id="Line" stroke="#0564FE" stroke-width="1.10400002" stroke-linecap="round" transform="translate(269.736006, 6.080000) scale(-1, -1) translate(-269.736006, -6.080000) "></path>
                            <line x1="369.744007" y1="10.0800004" x2="403.672008" y2="10.0800004" id="Line-10" stroke="#0564FE" stroke-width="1.10400002" stroke-linecap="square"></line>
                            <g id="Check" transform="translate(435.432008, 4.560000)">
                                <polygon id="Shape" points="0 0 11.0400002 0 11.0400002 11.0400002 0 11.0400002"></polygon>
                                <path d="M2.87422836,8.11809859 C2.76773463,8.24332733 2.60252163,8.30222973 2.4408235,8.27261782 C2.27912537,8.24300591 2.14550789,8.12937846 2.09030349,7.97453781 C2.03509909,7.81969717 2.06669462,7.64716732 2.17318834,7.52193858 L6.08318842,2.9219385 C6.16332615,2.82766313 6.27806466,2.7696473 6.40149473,2.76099161 C6.52492479,2.75233593 6.64663737,2.79377034 6.73914843,2.8759385 L8.80914846,4.71593853 C8.93558345,4.82409983 8.99375414,4.99210723 8.96126989,5.15529254 C8.92878565,5.31847785 8.81071063,5.45140116 8.65249342,5.50289859 C8.49427621,5.55439601 8.3205822,5.51643933 8.19826845,5.40363854 L6.47970842,3.87643851 L2.87422836,8.11763859 L2.87422836,8.11809859 Z" id="Path-94" fill="#2CB179" fill-rule="nonzero" transform="translate(5.516854, 5.520009) rotate(-180.000000) translate(-5.516854, -5.520009) "></path>
                            </g>
                            <text id="2.3" font-family="OpenSans, Open Sans" font-size="11.0400002" font-weight="normal" fill="#FFFFFF">
                                <tspan x="89.8800019" y="12.1440002">2.3</tspan>
                            </text>
                            <text id="AAA" font-family="OpenSans, Open Sans" font-size="11.0400002" font-weight="normal" fill="#FFFFFF">
                                <tspan x="0" y="12.5679993">AAA</tspan>
                            </text>
                            <text id="0.424" font-family="OpenSans, Open Sans" font-size="11.0400002" font-weight="normal" fill="#FFFFFF">
                                <tspan x="164.952003" y="12.1440002">0.424</tspan>
                            </text>
                        </g>
                        <g id="Group-2-Copy-2" transform="translate(89.000000, 86.112002)">
                            <text id="0.122" font-family="OpenSans, Open Sans" font-size="8.83200016" font-weight="normal" fill="#FFFFFF">
                                <tspan x="243.760006" y="11.3520003">0.122</tspan>
                            </text>
                            <path d="M154.336005,12.0160002 C155.755521,10.2163649 157.1734,9.31654717 158.589642,9.31654717 C160.714006,9.31654717 161.607539,12.0160002 164.285857,12.0160002 C166.964175,12.0160002 172.357364,6.03436717 175.65815,5.78182808 C178.958936,5.52928899 183.254837,8.92390072 187.629643,8.92390072 C192.00445,8.92390072 197.408631,3.49505772 200.935213,1.88695822 C203.158903,0.872969033 205.225835,0.291983033 207.136007,0.14400022" id="Line" stroke="#0564FE" stroke-width="1.10400002" stroke-linecap="round" transform="translate(180.736006, 6.080000) scale(1, -1) translate(-180.736006, -6.080000) "></path>
                            <line x1="280.744007" y1="10.0800004" x2="314.672008" y2="10.0800004" id="Line-10" stroke="#0564FE" stroke-width="1.10400002" stroke-linecap="square"></line>
                            <g id="Check" transform="translate(346.432008, 4.560000)">
                                <polygon id="Shape" points="0 0 11.0400002 0 11.0400002 11.0400002 0 11.0400002"></polygon>
                                <path d="M2.87422836,8.11809859 C2.76773463,8.24332733 2.60252163,8.30222973 2.4408235,8.27261782 C2.27912537,8.24300591 2.14550789,8.12937846 2.09030349,7.97453781 C2.03509909,7.81969717 2.06669462,7.64716732 2.17318834,7.52193858 L6.08318842,2.9219385 C6.16332615,2.82766313 6.27806466,2.7696473 6.40149473,2.76099161 C6.52492479,2.75233593 6.64663737,2.79377034 6.73914843,2.8759385 L8.80914846,4.71593853 C8.93558345,4.82409983 8.99375414,4.99210723 8.96126989,5.15529254 C8.92878565,5.31847785 8.81071063,5.45140116 8.65249342,5.50289859 C8.49427621,5.55439601 8.3205822,5.51643933 8.19826845,5.40363854 L6.47970842,3.87643851 L2.87422836,8.11763859 L2.87422836,8.11809859 Z" id="Path-94" fill="#2CB179" fill-rule="nonzero" transform="translate(5.516854, 5.520009) rotate(-180.000000) translate(-5.516854, -5.520009) "></path>
                            </g>
                            <text id="0.90" font-family="OpenSans, Open Sans" font-size="11.0400002" font-weight="normal" fill="#FFFFFF">
                                <tspan x="0.880001903" y="12.1440002">0.90</tspan>
                            </text>
                            <text id="0.422" font-family="OpenSans, Open Sans" font-size="11.0400002" font-weight="normal" fill="#FFFFFF">
                                <tspan x="75.9520033" y="12.1440002">0.422</tspan>
                            </text>
                        </g>
                        <g id="Group-2-Copy-4" transform="translate(89.000000, 172.224003)">
                            <text id="-0.023" font-family="OpenSans, Open Sans" font-size="8.83200016" font-weight="normal" fill="#FFFFFF">
                                <tspan x="243.760006" y="11.3520003">-0.023</tspan>
                            </text>
                            <path d="M154.336005,12.0160004 C155.755521,10.9880783 157.1734,10.4741172 158.589642,10.4741172 C160.714006,10.4741172 161.607539,12.0160004 164.285857,12.0160004 C166.964175,12.0160004 172.357364,8.59939006 175.65815,8.45514389 C178.958936,8.31089772 183.254837,10.249844 187.629643,10.249844 C192.00445,10.249844 197.408631,9.78606922 200.935213,8.86754927 C203.158903,8.28837534 205.225835,7.95652571 207.136007,7.87200036" id="Line" stroke="#0564FE" stroke-width="1.10400002" stroke-linecap="round" transform="translate(180.736006, 9.944000) scale(-1, 1) translate(-180.736006, -9.944000) "></path>
                            <line x1="280.744007" y1="10.0800004" x2="314.672008" y2="10.0800004" id="Line-10" stroke="#0564FE" stroke-width="1.10400002" stroke-linecap="square"></line>
                            <g id="Check" transform="translate(346.432008, 4.560000)">
                                <polygon id="Shape" points="0 0 11.0400002 0 11.0400002 11.0400002 0 11.0400002"></polygon>
                                <path d="M2.87422836,8.11809859 C2.76773463,8.24332733 2.60252163,8.30222973 2.4408235,8.27261782 C2.27912537,8.24300591 2.14550789,8.12937846 2.09030349,7.97453781 C2.03509909,7.81969717 2.06669462,7.64716732 2.17318834,7.52193858 L6.08318842,2.9219385 C6.16332615,2.82766313 6.27806466,2.7696473 6.40149473,2.76099161 C6.52492479,2.75233593 6.64663737,2.79377034 6.73914843,2.8759385 L8.80914846,4.71593853 C8.93558345,4.82409983 8.99375414,4.99210723 8.96126989,5.15529254 C8.92878565,5.31847785 8.81071063,5.45140116 8.65249342,5.50289859 C8.49427621,5.55439601 8.3205822,5.51643933 8.19826845,5.40363854 L6.47970842,3.87643851 L2.87422836,8.11763859 L2.87422836,8.11809859 Z" id="Path-94" fill="#2CB179" fill-rule="nonzero" transform="translate(5.516854, 5.520009) rotate(-180.000000) translate(-5.516854, -5.520009) "></path>
                            </g>
                            <text id="0.163" font-family="OpenSans, Open Sans" font-size="11.0400002" font-weight="normal" fill="#FFFFFF">
                                <tspan x="0.880001903" y="12.1440002">0.163</tspan>
                            </text>
                            <text id="0.161" font-family="OpenSans, Open Sans" font-size="11.0400002" font-weight="normal" fill="#FFFFFF">
                                <tspan x="75.9520033" y="12.1440002">0.161</tspan>
                            </text>
                        </g>
                        <g id="Group-2-Copy" transform="translate(0.000000, 41.056001)">
                            <text id="0.250" font-family="OpenSans, Open Sans" font-size="8.83200016" font-weight="normal" fill="#FFFFFF">
                                <tspan x="332.760006" y="13.3520003">0.250</tspan>
                            </text>
                            <path d="M243.336005,14.0160002 C244.755521,12.2163649 246.1734,11.3165472 247.589642,11.3165472 C249.714006,11.3165472 250.607539,14.0160002 253.285857,14.0160002 C255.964175,14.0160002 261.357364,8.03436717 264.65815,7.78182808 C267.958936,7.52928899 272.254837,10.9239007 276.629643,10.9239007 C281.00445,10.9239007 286.408631,5.49505772 289.935213,3.88695822 C292.158903,2.87296903 294.225835,2.29198303 296.136007,2.14400022" id="Line" stroke="#0564FE" stroke-width="1.10400002" stroke-linecap="round" transform="translate(269.736006, 8.080000) scale(-1, 1) translate(-269.736006, -8.080000) "></path>
                            <line x1="369.744007" y1="12.0800004" x2="403.672008" y2="12.0800004" id="Line-10" stroke="#0564FE" stroke-width="1.10400002" stroke-linecap="square"></line>
                            <g id="Check" transform="translate(435.432008, 6.560000)">
                                <polygon id="Shape" points="0 0 11.0400002 0 11.0400002 11.0400002 0 11.0400002"></polygon>
                                <path d="M2.87422836,8.11809859 C2.76773463,8.24332733 2.60252163,8.30222973 2.4408235,8.27261782 C2.27912537,8.24300591 2.14550789,8.12937846 2.09030349,7.97453781 C2.03509909,7.81969717 2.06669462,7.64716732 2.17318834,7.52193858 L6.08318842,2.9219385 C6.16332615,2.82766313 6.27806466,2.7696473 6.40149473,2.76099161 C6.52492479,2.75233593 6.64663737,2.79377034 6.73914843,2.8759385 L8.80914846,4.71593853 C8.93558345,4.82409983 8.99375414,4.99210723 8.96126989,5.15529254 C8.92878565,5.31847785 8.81071063,5.45140116 8.65249342,5.50289859 C8.49427621,5.55439601 8.3205822,5.51643933 8.19826845,5.40363854 L6.47970842,3.87643851 L2.87422836,8.11763859 L2.87422836,8.11809859 Z" id="Path-94" fill="#2CB179" fill-rule="nonzero" transform="translate(5.516854, 5.520009) rotate(-180.000000) translate(-5.516854, -5.520009) "></path>
                            </g>
                            <text id="1.3" font-family="OpenSans, Open Sans" font-size="11.0400002" font-weight="normal" fill="#FFFFFF">
                                <tspan x="89.8800019" y="14.1440002">1.3</tspan>
                            </text>
                            <text id="0.423" font-family="OpenSans, Open Sans" font-size="11.0400002" font-weight="normal" fill="#FFFFFF">
                                <tspan x="164.952003" y="14.1440002">0.423</tspan>
                            </text>
                            <text id="AA" font-family="OpenSans, Open Sans" font-size="11.0400002" font-weight="normal" fill="#FFFFFF">
                                <tspan x="0" y="12.5119986">AA</tspan>
                            </text>
                            <text id="BBB" font-family="OpenSans, Open Sans" font-size="11.0400002" font-weight="normal" fill="#FFFFFF">
                                <tspan x="0" y="55.5119986">BBB</tspan>
                            </text>
                            <text id="C" font-family="OpenSans, Open Sans" font-size="11.0400002" font-weight="normal" fill="#FFFFFF">
                                <tspan x="0" y="98.5119986">C</tspan>
                            </text>
                            <text id="C" font-family="OpenSans, Open Sans" font-size="11.0400002" font-weight="normal" fill="#FFFFFF">
                                <tspan x="0" y="141.511999">C</tspan>
                            </text>
                            <text id="DDD" font-family="OpenSans, Open Sans" font-size="11.0400002" font-weight="normal" fill="#FFFFFF">
                                <tspan x="0" y="184.511999">DDD</tspan>
                            </text>
                        </g>
                        <g id="Group-2-Copy-3" transform="translate(89.000000, 129.168002)">
                            <text id="0.123" font-family="OpenSans, Open Sans" font-size="8.83200016" font-weight="normal" fill="#FFFFFF">
                                <tspan x="243.760006" y="11.3520003">0.123</tspan>
                            </text>
                            <path d="M154.336005,12.0160009 C155.755521,10.4662494 157.1734,9.69137368 158.589642,9.69137368 C160.714006,9.69137368 161.607539,12.0160009 164.285857,12.0160009 C166.964175,12.0160009 172.357364,8.6116447 175.65815,8.39417129 C178.958936,8.17669789 183.254837,11.0999593 187.629643,11.0999593 C192.00445,11.0999593 197.408631,6.42492471 200.935213,5.04011385 C203.158903,4.1669196 205.225835,3.66660495 207.136007,3.53916992" id="Line" stroke="#0564FE" stroke-width="1.10400002" stroke-linecap="round" transform="translate(180.736006, 7.777585) scale(-1, -1) translate(-180.736006, -7.777585) "></path>
                            <line x1="280.744007" y1="10.0800004" x2="314.672008" y2="10.0800004" id="Line-10" stroke="#0564FE" stroke-width="1.10400002" stroke-linecap="square"></line>
                            <g id="Check" transform="translate(346.432008, 4.560000)">
                                <polygon id="Shape" points="0 0 11.0400002 0 11.0400002 11.0400002 0 11.0400002"></polygon>
                                <path d="M2.87422836,8.11809859 C2.76773463,8.24332733 2.60252163,8.30222973 2.4408235,8.27261782 C2.27912537,8.24300591 2.14550789,8.12937846 2.09030349,7.97453781 C2.03509909,7.81969717 2.06669462,7.64716732 2.17318834,7.52193858 L6.08318842,2.9219385 C6.16332615,2.82766313 6.27806466,2.7696473 6.40149473,2.76099161 C6.52492479,2.75233593 6.64663737,2.79377034 6.73914843,2.8759385 L8.80914846,4.71593853 C8.93558345,4.82409983 8.99375414,4.99210723 8.96126989,5.15529254 C8.92878565,5.31847785 8.81071063,5.45140116 8.65249342,5.50289859 C8.49427621,5.55439601 8.3205822,5.51643933 8.19826845,5.40363854 L6.47970842,3.87643851 L2.87422836,8.11763859 L2.87422836,8.11809859 Z" id="Path-94" fill="#2CB179" fill-rule="nonzero" transform="translate(5.516854, 5.520009) rotate(-180.000000) translate(-5.516854, -5.520009) "></path>
                            </g>
                            <text id="0.164" font-family="OpenSans, Open Sans" font-size="11.0400002" font-weight="normal" fill="#FFFFFF">
                                <tspan x="0.880001903" y="12.1440002">0.164</tspan>
                            </text>
                            <text id="0.24" font-family="OpenSans, Open Sans" font-size="11.0400002" font-weight="normal" fill="#FFFFFF">
                                <tspan x="75.9520033" y="12.1440002">0.24</tspan>
                            </text>
                        </g>
                        <g id="Group-2-Copy-5" transform="translate(89.000000, 215.280004)">
                            <text id="-0.003" font-family="OpenSans, Open Sans" font-size="8.83200016" font-weight="normal" fill="#FFFFFF">
                                <tspan x="243.760006" y="11.3520003">-0.003</tspan>
                            </text>
                            <path d="M154.336005,12.2034091 C155.755521,10.8308588 157.1734,10.1445836 158.589642,10.1445836 C160.714006,10.1445836 161.607539,12.2034091 164.285857,12.2034091 C166.964175,12.2034091 172.357364,7.64132257 175.65815,7.44871544 C178.958936,7.25610832 183.254837,12.3602763 187.629643,12.3602763 C192.00445,12.3602763 197.408631,8.21979306 200.935213,6.99332379 C203.158903,6.21997204 205.225835,5.77686421 207.136007,5.66400032" id="Line" stroke="#0564FE" stroke-width="1.10400002" stroke-linecap="round"></path>
                            <line x1="280.744007" y1="10.0800004" x2="314.672008" y2="10.0800004" id="Line-10" stroke="#0564FE" stroke-width="1.10400002" stroke-linecap="square"></line>
                            <g id="Check" transform="translate(346.432008, 4.560000)">
                                <polygon id="Shape" points="0 0 11.0400002 0 11.0400002 11.0400002 0 11.0400002"></polygon>
                                <path d="M2.87422836,8.11809859 C2.76773463,8.24332733 2.60252163,8.30222973 2.4408235,8.27261782 C2.27912537,8.24300591 2.14550789,8.12937846 2.09030349,7.97453781 C2.03509909,7.81969717 2.06669462,7.64716732 2.17318834,7.52193858 L6.08318842,2.9219385 C6.16332615,2.82766313 6.27806466,2.7696473 6.40149473,2.76099161 C6.52492479,2.75233593 6.64663737,2.79377034 6.73914843,2.8759385 L8.80914846,4.71593853 C8.93558345,4.82409983 8.99375414,4.99210723 8.96126989,5.15529254 C8.92878565,5.31847785 8.81071063,5.45140116 8.65249342,5.50289859 C8.49427621,5.55439601 8.3205822,5.51643933 8.19826845,5.40363854 L6.47970842,3.87643851 L2.87422836,8.11763859 L2.87422836,8.11809859 Z" id="Path-94" fill="#2CB179" fill-rule="nonzero" transform="translate(5.516854, 5.520009) rotate(-180.000000) translate(-5.516854, -5.520009) "></path>
                            </g>
                            <text id="0.152" font-family="OpenSans, Open Sans" font-size="11.0400002" font-weight="normal" fill="#FFFFFF">
                                <tspan x="0.880001903" y="12.1440002">0.152</tspan>
                            </text>
                            <text id="0.25" font-family="OpenSans, Open Sans" font-size="11.0400002" font-weight="normal" fill="#FFFFFF">
                                <tspan x="75.9520033" y="12.1440002">0.25</tspan>
                            </text>
                        </g>
                    </g>
                </g>
            </g>
        </g>
    </g>
</svg>